<?xml version="1.0" encoding="UTF-8"?>
<svg version="1.1" xmlns="http://www.w3.org/2000/svg" width="225" height="225">
<path d="M0 0 C74.25 0 148.5 0 225 0 C225 74.25 225 148.5 225 225 C150.75 225 76.5 225 0 225 C0 150.75 0 76.5 0 0 Z " fill="#8A1F1A" transform="translate(0,0)"/>
<path d="M0 0 C11.55 0 23.1 0 35 0 C33.02 2.31 31.04 4.62 29 7 C28.07553024 10.93965157 28.07553024 10.93965157 28.125 14.9375 C28.104375 15.62134766 28.08375 16.30519531 28.0625 17.00976562 C28.01598555 18.67265712 28.00428195 20.33646359 28 22 C28.71027344 21.98839844 29.42054687 21.97679688 30.15234375 21.96484375 C31.07144531 21.95582031 31.99054687 21.94679688 32.9375 21.9375 C34.31228516 21.92009766 34.31228516 21.92009766 35.71484375 21.90234375 C38 22 38 22 39 23 C39.1875 25.4375 39.1875 25.4375 39 28 C35.99382731 31.00617269 33.17618402 30.59585316 29 31 C28.67 32.65 28.34 34.3 28 36 C28.62648438 35.97679687 29.25296875 35.95359375 29.8984375 35.9296875 C30.71570313 35.91164062 31.53296875 35.89359375 32.375 35.875 C33.18710937 35.85179687 33.99921875 35.82859375 34.8359375 35.8046875 C37 36 37 36 39 38 C38.44444444 42.55555556 38.44444444 42.55555556 37 44 C35.48071962 44.07179964 33.95832518 44.08392007 32.4375 44.0625 C31.61121094 44.05347656 30.78492187 44.04445312 29.93359375 44.03515625 C29.29550781 44.02355469 28.65742188 44.01195312 28 44 C28 45.98 28 47.96 28 50 C29.98567708 49.93489583 31.97135417 49.86979167 33.95703125 49.8046875 C36 50 36 50 39 52 C38.125 56.75 38.125 56.75 37 59 C34.03 59 31.06 59 28 59 C28 60.98 28 62.96 28 65 C29.258125 64.938125 30.51625 64.87625 31.8125 64.8125 C34.48703401 64.82198416 35.71452998 64.83563847 38.0625 66.1875 C39.3945522 68.76280093 38.85352401 70.29717396 38 73 C37 74 37 74 34.93359375 74.09765625 C34.10988281 74.08605469 33.28617188 74.07445313 32.4375 74.0625 C31.19806641 74.04896484 31.19806641 74.04896484 29.93359375 74.03515625 C28.97646484 74.01775391 28.97646484 74.01775391 28 74 C28 75.98 28 77.96 28 80 C28.62648438 79.97679688 29.25296875 79.95359375 29.8984375 79.9296875 C30.71570313 79.91164063 31.53296875 79.89359375 32.375 79.875 C33.18710937 79.85179688 33.99921875 79.82859375 34.8359375 79.8046875 C37 80 37 80 39 82 C38.67028521 85.29714793 38.3773161 86.6226839 36 89 C33.31160615 89.26991906 30.70858064 89.08737357 28 89 C28 90.65 28 92.3 28 94 C29.98567708 93.93489583 31.97135417 93.86979167 33.95703125 93.8046875 C36 94 36 94 39 96 C39.3125 98.5 39.3125 98.5 39 101 C35.99382731 104.00617269 33.17618402 103.59585316 29 104 C28.67 105.65 28.34 107.3 28 109 C28.62648438 108.97679688 29.25296875 108.95359375 29.8984375 108.9296875 C30.71570313 108.91164063 31.53296875 108.89359375 32.375 108.875 C33.18710937 108.85179688 33.99921875 108.82859375 34.8359375 108.8046875 C37 109 37 109 39 111 C39.125 113.625 39.125 113.625 39 116 C35.5980513 118.09350689 32.94727588 118.17942163 29 118 C29 119.65 29 121.3 29 123 C30.093125 122.95875 31.18625 122.9175 32.3125 122.875 C36 123 36 123 39 125 C39.3125 127.5 39.3125 127.5 39 130 C35.99382731 133.00617269 33.17618402 132.59585316 29 133 C28.67 134.65 28.34 136.3 28 138 C28.62648438 137.97679687 29.25296875 137.95359375 29.8984375 137.9296875 C30.71570313 137.91164062 31.53296875 137.89359375 32.375 137.875 C33.18710937 137.85179687 33.99921875 137.82859375 34.8359375 137.8046875 C37 138 37 138 39 140 C39.125 142.625 39.125 142.625 39 145 C36.59454362 146.20272819 35.05003047 146.10071472 32.375 146.0625 C31.55773437 146.05347656 30.74046875 146.04445312 29.8984375 146.03515625 C28.95871094 146.01775391 28.95871094 146.01775391 28 146 C28 148.31 28 150.62 28 153 C28.62648438 152.97679687 29.25296875 152.95359375 29.8984375 152.9296875 C30.71570313 152.91164062 31.53296875 152.89359375 32.375 152.875 C33.18710937 152.85179687 33.99921875 152.82859375 34.8359375 152.8046875 C37 153 37 153 39 155 C39.3125 157.5 39.3125 157.5 39 160 C35.91111478 162.05925681 35.29064073 162.2390374 31.8125 162.125 C30.554375 162.08375 29.29625 162.0425 28 162 C28 163.98 28 165.96 28 168 C28.71027344 167.98839844 29.42054687 167.97679687 30.15234375 167.96484375 C31.07144531 167.95582031 31.99054687 167.94679687 32.9375 167.9375 C33.85402344 167.92589844 34.77054688 167.91429687 35.71484375 167.90234375 C38 168 38 168 39 169 C39.1875 171.4375 39.1875 171.4375 39 174 C37 176 37 176 34.8359375 176.1953125 C34.02382813 176.17210937 33.21171875 176.14890625 32.375 176.125 C31.55773437 176.10695312 30.74046875 176.08890625 29.8984375 176.0703125 C29.27195312 176.04710937 28.64546875 176.02390625 28 176 C28 177.98 28 179.96 28 182 C28.62648438 181.97679687 29.25296875 181.95359375 29.8984375 181.9296875 C30.71570313 181.91164062 31.53296875 181.89359375 32.375 181.875 C33.18710937 181.85179687 33.99921875 181.82859375 34.8359375 181.8046875 C37 182 37 182 39 184 C38.44444444 188.55555556 38.44444444 188.55555556 37 190 C35.48071962 190.07179964 33.95832518 190.08392007 32.4375 190.0625 C31.61121094 190.05347656 30.78492187 190.04445312 29.93359375 190.03515625 C29.29550781 190.02355469 28.65742188 190.01195312 28 190 C28.08750555 192.22988284 28.19569061 194.45896005 28.3125 196.6875 C28.37050781 197.92886719 28.42851562 199.17023438 28.48828125 200.44921875 C29.01703444 204.11820084 29.76009946 206.08069834 32 209 C35.00007271 210.70855022 35.00007271 210.70855022 38 212 C38.99 212.99 38.99 212.99 40 214 C41.85814625 214.53649723 41.85814625 214.53649723 44.0078125 214.81640625 C45.24337891 215.00299805 45.24337891 215.00299805 46.50390625 215.19335938 C47.36886719 215.31517578 48.23382813 215.43699219 49.125 215.5625 C49.93582031 215.68818359 50.74664062 215.81386719 51.58203125 215.94335938 C65.59371823 217.99254177 79.70648541 218.15353247 93.8359375 218.1328125 C95.49305231 218.13348872 97.15016702 218.13446138 98.80728149 218.13571167 C102.24767011 218.13717122 105.68803245 218.13508932 109.12841797 218.13037109 C113.51235712 218.12464767 117.89623537 218.12798039 122.28017235 218.13394356 C125.68958996 218.13757357 129.09899335 218.13639987 132.50841141 218.13381577 C134.12455884 218.13315464 135.74070762 218.13394601 137.35685349 218.13629532 C144.97993253 218.1449575 152.54319833 218.15026825 160.12390137 217.22361755 C163.75114381 216.79127617 167.35417325 216.94119634 171 217 C171 216.34 171 215.68 171 215 C172.10859375 214.73445312 173.2171875 214.46890625 174.359375 214.1953125 C175.82297811 213.83879379 177.28651641 213.48200897 178.75 213.125 C179.47960937 212.95097656 180.20921875 212.77695313 180.9609375 212.59765625 C186.28437043 211.47109062 186.28437043 211.47109062 191 209 C193.24194584 203.82549528 193.34018098 198.98333457 193.4140625 193.4453125 C193.44311172 192.09299026 193.44311172 192.09299026 193.4727478 190.71334839 C193.53224296 187.85066004 193.57880817 184.98793082 193.625 182.125 C193.66320747 180.17706637 193.7022608 178.22914914 193.7421875 176.28125 C193.83791965 171.52096742 193.92206116 166.7606058 194 162 C195.98 162 197.96 162 200 162 C200 161.34 200 160.68 200 160 C200.66 160 201.32 160 202 160 C202 152.41 202 144.82 202 137 C199.36 136.67 196.72 136.34 194 136 C194 135.34 194 134.68 194 134 C195.98 134 197.96 134 200 134 C200 133.34 200 132.68 200 132 C200.66 132 201.32 132 202 132 C202 124.41 202 116.82 202 109 C199.36 108.67 196.72 108.34 194 108 C193.99413376 106.75829544 193.98826752 105.51659088 193.98222351 104.23725891 C193.92502794 92.53935315 193.85228274 80.84163384 193.76428509 69.14391804 C193.71954431 63.12989451 193.6802962 57.11593932 193.65356445 51.10180664 C193.62756872 45.29859184 193.58719237 39.49563946 193.53681374 33.6925869 C193.52011984 31.47783864 193.50862131 29.26304497 193.50238609 27.04824257 C193.49277264 23.94765288 193.4647456 20.84773839 193.43237305 17.74731445 C193.43380814 16.83021698 193.43524323 15.91311951 193.4367218 14.9682312 C193.36590031 10.17668792 193.18260531 6.8389294 190 3 C188.02 1.515 188.02 1.515 186 0 C198.87 0 211.74 0 225 0 C225 74.25 225 148.5 225 225 C150.75 225 76.5 225 0 225 C0 150.75 0 76.5 0 0 Z " fill="#FCFCFC" transform="translate(0,0)"/>
<path d="M0 0 C12.87 0 25.74 0 39 0 C39 74.25 39 148.5 39 225 C-6.21 225 -51.42 225 -98 225 C-98 224.67 -98 224.34 -98 224 C-96.7617749 223.98541748 -95.5235498 223.97083496 -94.24780273 223.95581055 C-70.69996825 223.65918693 -47.19371664 223.10446944 -23.6875 221.625 C-22.73559784 221.56782806 -21.78369568 221.51065613 -20.802948 221.45175171 C-10.75702836 220.83890476 -0.79557887 219.96691587 9.16796875 218.5234375 C10.01329666 218.40352448 10.85862457 218.28361145 11.72956848 218.1600647 C15.42524975 217.58868829 17.84804745 217.1013017 21 215 C21.72965366 212.43717258 21.72965366 212.43717258 22 210 C21.195625 209.690625 20.39125 209.38125 19.5625 209.0625 C17 208 17 208 16 207 C15.030625 207 14.06125 207 13.0625 207 C10 207 10 207 8 206 C8 191.48 8 176.96 8 162 C9.98 162 11.96 162 14 162 C14 161.34 14 160.68 14 160 C14.66 160 15.32 160 16 160 C16 152.41 16 144.82 16 137 C13.36 136.67 10.72 136.34 8 136 C8 135.34 8 134.68 8 134 C9.98 134 11.96 134 14 134 C14 133.34 14 132.68 14 132 C14.66 132 15.32 132 16 132 C16 124.41 16 116.82 16 109 C13.36 108.67 10.72 108.34 8 108 C7.99413376 106.75829544 7.98826752 105.51659088 7.98222351 104.23725891 C7.92502794 92.53935315 7.85228274 80.84163384 7.76428509 69.14391804 C7.71954431 63.12989451 7.6802962 57.11593932 7.65356445 51.10180664 C7.62756872 45.29859184 7.58719237 39.49563946 7.53681374 33.6925869 C7.52011984 31.47783864 7.50862131 29.26304497 7.50238609 27.04824257 C7.49277264 23.94765288 7.4647456 20.84773839 7.43237305 17.74731445 C7.43380814 16.83021698 7.43524323 15.91311951 7.4367218 14.9682312 C7.36590031 10.17668792 7.18260531 6.8389294 4 3 C2.68 2.01 1.36 1.02 0 0 Z " fill="#FDFDFD" transform="translate(186,0)"/>
<path d="M0 0 C1.26606079 -0.00571014 2.53212158 -0.01142029 3.83654785 -0.01730347 C5.24757375 -0.01854889 6.65859977 -0.01967397 8.06962585 -0.02069092 C9.54947534 -0.02531813 11.02932364 -0.03034265 12.50917053 -0.03573608 C16.53611844 -0.04887218 20.56304966 -0.05530749 24.59001565 -0.05974674 C27.10505858 -0.06267575 29.62009693 -0.06678025 32.13513756 -0.07125092 C40.00161955 -0.08492954 47.86809109 -0.09459419 55.73458415 -0.09845281 C64.81979106 -0.10293347 73.9048475 -0.12048014 82.99000865 -0.1494534 C90.00918045 -0.17106205 97.0283099 -0.18115666 104.04751462 -0.18249393 C108.24123137 -0.18354262 112.43480676 -0.1894639 116.62848854 -0.20731354 C120.57407529 -0.22377999 124.5194142 -0.22595676 128.46502304 -0.21717453 C129.9126203 -0.21640336 131.36023079 -0.22075741 132.80779457 -0.23063278 C134.7852341 -0.24333097 136.76277296 -0.23569151 138.74023438 -0.22705078 C139.8465537 -0.22851734 140.95287302 -0.2299839 142.09271717 -0.2314949 C146.19290033 0.2823437 148.9262842 1.76981918 151.56059265 4.95294189 C152.33081911 8.32268264 150.75755677 10.26865647 149.06059265 13.14044189 C148.07059265 13.14044189 147.08059265 13.14044189 146.06059265 13.14044189 C146.06059265 14.13044189 146.06059265 15.12044189 146.06059265 16.14044189 C145.07059265 16.14044189 144.08059265 16.14044189 143.06059265 16.14044189 C143.06059265 13.50044189 143.06059265 10.86044189 143.06059265 8.14044189 C81.0142444 7.91273382 81.0142444 7.91273382 18.97065735 8.34896851 C16.87436086 8.37648077 14.77796486 8.39728022 12.68153381 8.41116333 C9.86448079 8.43180391 7.04905098 8.47714713 4.23246765 8.53106689 C3.44231766 8.53230057 2.65216766 8.53353424 1.83807373 8.5348053 C-1.6263982 8.63039159 -3.58718016 8.87419917 -6.38764954 10.99102783 C-8.1081887 13.14859983 -8.1081887 13.14859983 -8.93940735 16.14044189 C-6.58573022 16.8282655 -6.58573022 16.8282655 -3.93940735 17.14044189 C-2.94940735 16.48044189 -1.95940735 15.82044189 -0.93940735 15.14044189 C-0.93940735 17.12044189 -0.93940735 19.10044189 -0.93940735 21.14044189 C-4.92078565 22.46756799 -8.78985962 22.20960102 -12.93940735 22.14044189 C-13.80053316 7.09944433 -13.80053316 7.09944433 -10.56440735 3.26544189 C-6.72241406 0.15525685 -4.88981969 0.01316116 0 0 Z " fill="#C52E24" transform="translate(40.93940734863281,-0.14044189453125)"/>
<path d="M0 0 C0.33 0.99 0.66 1.98 1 3 C2.794375 2.87625 2.794375 2.87625 4.625 2.75 C9.09298302 2.75795015 11.663305 3.91355713 15 7 C15.625 9.5625 15.625 9.5625 15 12 C4.9085591 22.43219086 -27.15846682 19.85277491 -41.01278687 20.10983276 C-53.5938494 20.28668875 -66.1766466 20.23782419 -78.75848389 20.19561768 C-82.85414989 20.18473126 -86.94978272 20.18515151 -91.0454607 20.18575573 C-95.03920916 20.18548227 -99.03293666 20.17997538 -103.02667809 20.17275429 C-104.9102532 20.1696112 -106.79383063 20.16761064 -108.67740822 20.16686058 C-122.22628265 20.15552914 -135.59011434 19.60840824 -149.0625 18.0625 C-149.81128418 17.97822754 -150.56006836 17.89395508 -151.33154297 17.80712891 C-157.91684949 17.04733986 -164.46018342 16.08611795 -171 15 C-171 14.34 -171 13.68 -171 13 C-172.65 13 -174.3 13 -176 13 C-176 12.67 -176 12.34 -176 12 C-173.69 12 -171.38 12 -169 12 C-169 10.35 -169 8.7 -169 7 C-170.32 6.34 -171.64 5.68 -173 5 C-171.88625 4.71125 -170.7725 4.4225 -169.625 4.125 C-165.99708908 3.30758671 -165.99708908 3.30758671 -164 1 C-163.443125 2.1446875 -163.443125 2.1446875 -162.875 3.3125 C-160.62242042 6.5411974 -158.5481931 7.41463713 -155 9 C-154.34 9.66 -153.68 10.32 -153 11 C-151.14185375 11.53649723 -151.14185375 11.53649723 -148.9921875 11.81640625 C-148.16847656 11.94080078 -147.34476563 12.06519531 -146.49609375 12.19335938 C-145.19865234 12.37608398 -145.19865234 12.37608398 -143.875 12.5625 C-143.06417969 12.68818359 -142.25335938 12.81386719 -141.41796875 12.94335938 C-127.40628177 14.99254177 -113.29351459 15.15353247 -99.1640625 15.1328125 C-97.50694769 15.13348872 -95.84983298 15.13446138 -94.19271851 15.13571167 C-90.75232989 15.13717122 -87.31196755 15.13508932 -83.87158203 15.13037109 C-79.48764288 15.12464767 -75.10376463 15.12798039 -70.71982765 15.13394356 C-67.31041004 15.13757357 -63.90100665 15.13639987 -60.49158859 15.13381577 C-58.87544116 15.13315464 -57.25929238 15.13394601 -55.64314651 15.13629532 C-48.02006747 15.1449575 -40.45680167 15.15026825 -32.87609863 14.22361755 C-29.24885619 13.79127617 -25.64582675 13.94119634 -22 14 C-22 13.34 -22 12.68 -22 12 C-20.89140625 11.73445312 -19.7828125 11.46890625 -18.640625 11.1953125 C-17.17702189 10.83879379 -15.71348359 10.48200897 -14.25 10.125 C-13.52039063 9.95097656 -12.79078125 9.77695313 -12.0390625 9.59765625 C-6.77783868 8.39532904 -6.77783868 8.39532904 -2 6 C-0.70768358 2.95800528 -0.70768358 2.95800528 0 0 Z " fill="#E1E1E2" transform="translate(193,203)"/>
<path d="M0 0 C0.99 0.66 1.98 1.32 3 2 C5.14069226 2.31695112 5.14069226 2.31695112 7.4921875 2.30859375 C8.36230469 2.33373047 9.23242188 2.35886719 10.12890625 2.38476562 C11.95175468 2.41977054 13.77467859 2.45105326 15.59765625 2.47851562 C24.36486834 2.74399251 24.36486834 2.74399251 28 6 C28.8738529 11.00479386 28.8738529 11.00479386 28 14 C23.4 18 23.4 18 20 18 C20 18.99 20 19.98 20 21 C20.66 21 21.32 21 22 21 C22.33 22.65 22.66 24.3 23 26 C25.64 26.33 28.28 26.66 31 27 C31.3125 30.3125 31.3125 30.3125 31 34 C28.15739513 36.38164192 26.71594733 37 23 37 C23 36.34 23 35.68 23 35 C15.08 35 7.16 35 -1 35 C-1.4375 24.9375 -1.4375 24.9375 -1.56811523 21.80834961 C-1.75003734 17.82106319 -1.95765216 13.90104472 -2.58984375 9.95703125 C-3.03930818 6.71660672 -2.72743257 5.68711733 -1 3 C-0.67 2.01 -0.34 1.02 0 0 Z " fill="#671C1B" transform="translate(137,142)"/>
<path d="M0 0 C48.18 0 96.36 0 146 0 C146 0.33 146 0.66 146 1 C137.57142857 3.28571429 137.57142857 3.28571429 133 3 C133 3.66 133 4.32 133 5 C115.90855164 7.5859541 98.70677137 7.30760336 81.46923828 7.26074219 C77.24399309 7.2494036 73.01900139 7.2560832 68.79376507 7.26762199 C19.06032996 7.38291502 19.06032996 7.38291502 -1 2 C-0.67 1.34 -0.34 0.68 0 0 Z " fill="#949494" transform="translate(38,212)"/>
<path d="M0 0 C0.89396484 -0.01546875 1.78792969 -0.0309375 2.70898438 -0.046875 C6.93584527 -0.02177115 9.45555385 0.14925222 13.171875 2.296875 C15.0625 4.5 15.0625 4.5 15.375 8.25 C15.271875 9.3225 15.16875 10.395 15.0625 11.5 C16.0525 11.83 17.0425 12.16 18.0625 12.5 C18.0625 15.8 18.0625 19.1 18.0625 22.5 C15.1405231 23.96098845 12.56356525 23.61134901 9.3046875 23.59765625 C8.31011032 23.59553383 8.31011032 23.59553383 7.29544067 23.59336853 C5.17608137 23.58776754 3.05682741 23.575215 0.9375 23.5625 C-0.49869639 23.55748512 -1.93489444 23.55292219 -3.37109375 23.54882812 C-6.89326345 23.53779782 -10.41537145 23.52053259 -13.9375 23.5 C-14.05394156 20.41698584 -14.12482432 17.33453877 -14.1875 14.25 C-14.22101563 13.37730469 -14.25453125 12.50460938 -14.2890625 11.60546875 C-14.34634689 7.85334143 -14.34804638 5.25899331 -12.54296875 1.921875 C-8.45958049 -0.30654078 -4.57568282 -0.07883445 0 0 Z " fill="#F8EFED" transform="translate(149.9375,35.5)"/>
<path d="M0 0 C0.04125 0.61875 0.0825 1.2375 0.125 1.875 C0.558125 2.926875 0.558125 2.926875 1 4 C3.99615946 5.3045656 3.99615946 5.3045656 7 6 C7.1875 8.375 7.1875 8.375 7 11 C-0.54529967 16.03019978 -11.25076496 15.85988731 -20.0625 16.625 C-20.81543335 16.6907019 -21.5683667 16.75640381 -22.34411621 16.82409668 C-46.07127742 18.81022129 -69.91273399 18.33355324 -93.69873047 18.04034424 C-96.83167766 18.00205704 -99.96463932 17.96899043 -103.09765625 17.93701172 C-150.96763179 17.41097637 -150.96763179 17.41097637 -161 12 C-163.66709069 11.83249586 -163.66709069 11.83249586 -166 12 C-165.67 10.35 -165.34 8.7 -165 7 C-164.34 7 -163.68 7 -163 7 C-162.67 6.34 -162.34 5.68 -162 5 C-161.443125 5.433125 -160.88625 5.86625 -160.3125 6.3125 C-154.76274376 10.36232212 -150.42198016 11.71535418 -143.6875 12.625 C-142.89021484 12.74617187 -142.09292969 12.86734375 -141.27148438 12.9921875 C-127.30786252 14.99164775 -113.24009781 15.15345414 -99.1640625 15.1328125 C-97.50694769 15.13348872 -95.84983298 15.13446138 -94.19271851 15.13571167 C-90.75232989 15.13717122 -87.31196755 15.13508932 -83.87158203 15.13037109 C-79.48764288 15.12464767 -75.10376463 15.12798039 -70.71982765 15.13394356 C-67.31041004 15.13757357 -63.90100665 15.13639987 -60.49158859 15.13381577 C-58.87544116 15.13315464 -57.25929238 15.13394601 -55.64314651 15.13629532 C-48.02006747 15.1449575 -40.45680167 15.15026825 -32.87609863 14.22361755 C-29.24885619 13.79127617 -25.64582675 13.94119634 -22 14 C-22 13.34 -22 12.68 -22 12 C-20.89140625 11.73445312 -19.7828125 11.46890625 -18.640625 11.1953125 C-17.17702189 10.83879379 -15.71348359 10.48200897 -14.25 10.125 C-13.52039063 9.95097656 -12.79078125 9.77695313 -12.0390625 9.59765625 C-6.77783868 8.39532904 -6.77783868 8.39532904 -2 6 C-0.70768358 2.95800528 -0.70768358 2.95800528 0 0 Z " fill="#B7B6B6" transform="translate(193,203)"/>
<path d="M0 0 C1.84217102 -0.01908669 1.84217102 -0.01908669 3.72155762 -0.03855896 C5.07446483 -0.03237714 6.42737015 -0.02577116 7.78027344 -0.01878357 C9.21131275 -0.02584423 10.6423446 -0.03458987 12.07336426 -0.04489136 C15.953568 -0.06737764 19.83336372 -0.0644478 23.71360779 -0.05556989 C26.95428355 -0.05045738 30.19488281 -0.05775457 33.43555069 -0.06504196 C41.08047431 -0.08203812 48.7251983 -0.07847757 56.37011719 -0.06175232 C64.25525143 -0.04482458 72.13983234 -0.06067477 80.02490616 -0.0929752 C86.79789449 -0.11966824 93.57071054 -0.12694811 100.34374619 -0.11846012 C104.38769565 -0.1135308 108.43131206 -0.11574661 112.47521973 -0.13624763 C116.27741496 -0.15460103 120.07881378 -0.14865141 123.88096619 -0.12404823 C125.2753408 -0.11903941 126.66977607 -0.12253219 128.06410217 -0.13519669 C138.63449769 -0.22360356 138.63449769 -0.22360356 141.8536377 1.66986275 C143.2578125 3.05410767 143.2578125 3.05410767 144.88964844 5.5146637 C144.55964844 6.1746637 144.22964844 6.8346637 143.88964844 7.5146637 C143.35397719 7.0276596 142.81830595 6.5406555 142.26640224 6.0388937 C139.26066422 4.11129141 137.41829035 4.13503173 133.86158752 4.12698364 C132.62643402 4.11707901 131.39128052 4.10717438 130.11869812 4.0969696 C128.75271507 4.1012076 127.38673298 4.10576546 126.02075195 4.11061096 C124.5800117 4.10490777 123.13927596 4.0979437 121.69854736 4.08981323 C117.78735114 4.0718606 113.876379 4.07305414 109.96515393 4.07875562 C106.69968674 4.08184454 103.43426277 4.0757583 100.16880172 4.06971687 C92.46495564 4.05566626 84.76122043 4.05723727 77.05737305 4.06861877 C69.11042088 4.08010001 61.16380619 4.06602562 53.2168985 4.0392223 C46.39299281 4.0170686 39.56919308 4.01042718 32.74525398 4.01629871 C28.67003324 4.01967038 24.59502883 4.01723952 20.51983833 4.00004768 C16.68739411 3.98458579 12.85544992 3.98852518 9.02302551 4.00735283 C7.61736077 4.01104091 6.21165905 4.00792375 4.80602837 3.99746704 C2.88562117 3.98427271 0.96508492 3.99820316 -0.95530701 4.01345825 C-2.56664347 4.01377218 -2.56664347 4.01377218 -4.21053219 4.01409245 C-7.78366756 4.63089253 -9.48863999 6.07469139 -12.11035156 8.5146637 C-11.79024979 5.52704715 -11.13501838 4.53864329 -8.94146729 2.40620518 C-5.6305078 0.19406769 -3.9445428 0.01039089 0 0 Z " fill="#DE4D3A" transform="translate(44.1103515625,2.4853363037109375)"/>
<path d="M0 0 C8.58 0 17.16 0 26 0 C26 0.66 26 1.32 26 2 C26.99 2 27.98 2 29 2 C29 6.29 29 10.58 29 15 C19.76 15 10.52 15 1 15 C0 7 0 7 0 0 Z " fill="#9D2018" transform="translate(136,60)"/>
<path d="M0 0 C11.38741722 -0.02317004 22.77482883 -0.04093891 34.16226482 -0.05181217 C39.44990051 -0.05703078 44.73752008 -0.06410992 50.02514648 -0.07543945 C55.127965 -0.08630459 60.230768 -0.09228455 65.33359718 -0.09487724 C67.28043677 -0.09672494 69.22727552 -0.10033299 71.17410851 -0.10573006 C73.90084036 -0.11298856 76.62750809 -0.1139889 79.35424805 -0.11352539 C80.56158096 -0.1189183 80.56158096 -0.1189183 81.79330444 -0.12442017 C85.65448843 -0.11731767 89.24725352 0.05607879 93 1 C81.98584205 8.34277196 62.07906632 5.30103896 49.53979492 5.26074219 C45.57520213 5.25003431 41.61106331 5.26067624 37.64648438 5.2734375 C24.96113412 5.27941003 12.524395 5.1820456 0 3 C0 2.01 0 1.02 0 0 Z " fill="#646463" transform="translate(64,212)"/>
<path d="M0 0 C0.88042969 -0.01224609 1.76085938 -0.02449219 2.66796875 -0.03710938 C3.50972656 -0.03904297 4.35148437 -0.04097656 5.21875 -0.04296875 C5.99154297 -0.04707764 6.76433594 -0.05118652 7.56054688 -0.05541992 C9.5 0.1875 9.5 0.1875 11.5 2.1875 C11.625 4.8125 11.625 4.8125 11.5 7.1875 C8.0980513 9.28100689 5.44727588 9.36692163 1.5 9.1875 C1.5 10.8375 1.5 12.4875 1.5 14.1875 C2.593125 14.14625 3.68625 14.105 4.8125 14.0625 C8.5 14.1875 8.5 14.1875 11.5 16.1875 C11.8125 18.6875 11.8125 18.6875 11.5 21.1875 C8.4111905 24.2763095 4.67564929 24.0464722 0.5 24.1875 C-9.94836957 23.73913043 -9.94836957 23.73913043 -11.5 22.1875 C-11.54080783 20.18791636 -11.54254356 18.18704746 -11.5 16.1875 C-8.97524538 14.92512269 -7.18799534 15.08893596 -4.375 15.125 C-3.46492188 15.13402344 -2.55484375 15.14304687 -1.6171875 15.15234375 C-0.91851562 15.16394531 -0.21984375 15.17554687 0.5 15.1875 C0.5 13.2075 0.5 11.2275 0.5 9.1875 C-0.19867188 9.21070312 -0.89734375 9.23390625 -1.6171875 9.2578125 C-2.52726562 9.27585937 -3.43734375 9.29390625 -4.375 9.3125 C-5.27992187 9.33570312 -6.18484375 9.35890625 -7.1171875 9.3828125 C-9.5 9.1875 -9.5 9.1875 -11.5 7.1875 C-11.625 4.0625 -11.625 4.0625 -11.5 1.1875 C-7.9639604 -0.5805198 -3.89428745 0.00285087 0 0 Z " fill="#959594" transform="translate(27.5,108.8125)"/>
<path d="M0 0 C1.06669922 0.00322266 2.13339844 0.00644531 3.23242188 0.00976562 C4.29525391 -0.00634766 5.35808594 -0.02246094 6.453125 -0.0390625 C7.98163086 -0.0400293 7.98163086 -0.0400293 9.54101562 -0.04101562 C10.4761499 -0.04399658 11.41128418 -0.04697754 12.37475586 -0.05004883 C14.79492188 0.32226562 14.79492188 0.32226562 16.59204102 1.63012695 C18.65904363 4.53785887 18.27606781 6.89410087 17.79492188 10.32226562 C14.91034557 13.57904532 12.54976133 14.58467491 8.32617188 14.88867188 C6.649205 14.90847857 4.97186365 14.90659412 3.29492188 14.88476562 C2.45316406 14.90861328 1.61140625 14.93246094 0.74414062 14.95703125 C-3.68755758 14.94656267 -5.65115777 14.73438796 -9.30273438 12.01757812 C-11.20507812 9.32226562 -11.20507812 9.32226562 -11.14257812 5.63476562 C-9.30212603 -0.86816511 -5.94210716 0.0413953 0 0 Z " fill="#D7BFBB" transform="translate(147.205078125,79.677734375)"/>
<path d="M0 0 C0.89396484 -0.00708984 1.78792969 -0.01417969 2.70898438 -0.02148438 C11.32690743 0.06168786 11.32690743 0.06168786 15.0625 3.4375 C15.69140625 5.375 15.69140625 5.375 15.625 7.4375 C15.62693359 8.4584375 15.62693359 8.4584375 15.62890625 9.5 C14.82354774 12.25488153 13.47113829 12.94153514 11.0625 14.4375 C7.58449751 15.06746675 4.0917172 14.94707725 0.5625 14.9375 C-0.38753906 14.96585938 -1.33757812 14.99421875 -2.31640625 15.0234375 C-9.26717216 15.04298958 -9.26717216 15.04298958 -12.5625 12.06640625 C-14.10571108 9.11589189 -14.60716452 7.70211451 -13.9375 4.4375 C-10.42693459 -0.85265951 -5.75004747 -0.12796229 0 0 Z " fill="#C5BDBC" transform="translate(149.9375,144.5625)"/>
<path d="M0 0 C5.28 0 10.56 0 16 0 C16 0.33 16 0.66 16 1 C21.445 1.495 21.445 1.495 27 2 C26.67 3.65 26.34 5.3 26 7 C26.28881941 8.6749544 26.62367002 10.34251255 27 12 C27.21395475 15.85226428 27.18510245 19.70483814 27.1875 23.5625 C27.19974609 24.60341797 27.21199219 25.64433594 27.22460938 26.71679688 C27.22750977 28.22016602 27.22750977 28.22016602 27.23046875 29.75390625 C27.23457764 30.66470947 27.23868652 31.5755127 27.24291992 32.51391602 C26.98778335 35.12502726 26.32255385 36.75621221 25 39 C23.68 39 22.36 39 21 39 C21.495 38.2575 21.495 38.2575 22 37.5 C23.43636358 33.90909106 23.12851462 30.85543873 23 27 C19.91526116 25.22034298 17.56067048 24.71563429 14.015625 24.5859375 C12.61376953 24.52792969 12.61376953 24.52792969 11.18359375 24.46875 C10.21550781 24.4378125 9.24742187 24.406875 8.25 24.375 C7.26644531 24.33632812 6.28289062 24.29765625 5.26953125 24.2578125 C2.84653963 24.16371574 0.42355204 24.07807672 -2 24 C-2.33 22.68 -2.66 21.36 -3 20 C5.91 20 14.82 20 24 20 C24 18.35 24 16.7 24 15 C20.04 15 16.08 15 12 15 C12 14.01 12 13.02 12 12 C15.63 11.01 19.26 10.02 23 9 C23.33 7.68 23.66 6.36 24 5 C22.02 5 20.04 5 18 5 C18 4.67 18 4.34 18 4 C15.03 4 12.06 4 9 4 C9 4.33 9 4.66 9 5 C6.03 5 3.06 5 0 5 C0 3.35 0 1.7 0 0 Z " fill="#721D19" transform="translate(141,121)"/>
<path d="M0 0 C0.33 0 0.66 0 1 0 C1.0825 1.11375 1.165 2.2275 1.25 3.375 C1.56258625 7.00500408 1.56258625 7.00500408 3.78295898 8.2121582 C6.09144898 9.03249707 7.78234739 9.24451092 10.22265625 9.23046875 C11.00833984 9.22853516 11.79402344 9.22660156 12.60351562 9.22460938 C13.41498047 9.21236328 14.22644531 9.20011719 15.0625 9.1875 C15.87783203 9.18685547 16.69316406 9.18621094 17.53320312 9.18554688 C23.83103003 9.30053269 23.83103003 9.30053269 29 6 C29.99 6.66 30.98 7.32 32 8 C32.29296875 10.3828125 32.29296875 10.3828125 32.1875 13.125 C32.14689453 14.49011719 32.14689453 14.49011719 32.10546875 15.8828125 C32.07066406 16.58148438 32.03585938 17.28015625 32 18 C29.0780231 19.46098845 26.50106525 19.11134901 23.2421875 19.09765625 C22.24761032 19.09553383 22.24761032 19.09553383 21.23294067 19.09336853 C19.11358137 19.08776754 16.99432741 19.075215 14.875 19.0625 C13.43880361 19.05748512 12.00260556 19.05292219 10.56640625 19.04882812 C7.04419752 19.03864833 3.52221679 19.01907338 0 19 C0 12.73 0 6.46 0 0 Z " fill="#9F1811" transform="translate(136,40)"/>
<path d="M0 0 C0.97130859 -0.01224609 1.94261719 -0.02449219 2.94335938 -0.03710938 C3.87083984 -0.03904297 4.79832031 -0.04097656 5.75390625 -0.04296875 C7.02923218 -0.04913208 7.02923218 -0.04913208 8.33032227 -0.05541992 C10.4375 0.1875 10.4375 0.1875 12.4375 2.1875 C15.27918018 2.37623719 18.02150794 2.44273157 20.86328125 2.41796875 C22.14075226 2.41782524 22.14075226 2.41782524 23.44403076 2.41767883 C26.21282993 2.41395251 28.98127464 2.3950427 31.75 2.375 C33.6314279 2.36816843 35.51285699 2.3616576 37.39428711 2.35546875 C49.76014613 2.2969689 62.09805244 2.04376898 74.4375 1.1875 C74.4375 0.8575 74.4375 0.5275 74.4375 0.1875 C77.0775 0.1875 79.7175 0.1875 82.4375 0.1875 C82.4375 0.8475 82.4375 1.5075 82.4375 2.1875 C83.70303711 2.17964478 83.70303711 2.17964478 84.99414062 2.17163086 C102.83794243 2.07602177 120.61254279 2.22232375 138.4375 3.1875 C138.4375 2.1975 138.4375 1.2075 138.4375 0.1875 C140.4175 0.1875 142.3975 0.1875 144.4375 0.1875 C143.4375 3.1875 143.4375 3.1875 141.4375 4.1875 C139.44253288 4.28789764 137.44415523 4.32261365 135.44667053 4.32794189 C133.53062263 4.33650711 133.53062263 4.33650711 131.5758667 4.34524536 C130.15222178 4.34649077 128.72857674 4.34761586 127.30493164 4.34863281 C125.81198503 4.35325992 124.31903961 4.35828443 122.82609558 4.36367798 C118.76415911 4.37681284 114.70223917 4.38324884 110.64028478 4.38768864 C108.10448625 4.39061711 105.56869228 4.39472145 103.03289604 4.39919281 C95.10448161 4.4128695 87.17607753 4.42253578 79.24765211 4.4263947 C70.08488512 4.43087853 60.92226707 4.4484407 51.75954539 4.4773953 C44.68350512 4.49898253 37.60750686 4.50909737 30.531434 4.51043582 C26.30201113 4.51148582 22.07272823 4.51743489 17.84333992 4.53525543 C13.86657044 4.55168553 9.89004693 4.55391648 5.91325569 4.54511642 C4.45191796 4.54434337 2.99056728 4.54872399 1.52926254 4.55857468 C-0.46201419 4.57121311 -2.4533889 4.56365536 -4.44468689 4.55499268 C-6.11799277 4.55719252 -6.11799277 4.55719252 -7.82510281 4.5594368 C-10.5625 4.1875 -10.5625 4.1875 -12.44486332 2.66453171 C-12.81368342 2.17711124 -13.18250353 1.68969078 -13.5625 1.1875 C-9.08780163 -0.30406612 -4.68663221 0.00312234 0 0 Z " fill="#572628" transform="translate(45.5625,207.8125)"/>
<path d="M0 0 C-0.33 1.65 -0.66 3.3 -1 5 C-4.87684087 6.19287411 -7.91621923 7 -12 7 C-12 7.99 -12 8.98 -12 10 C-8.04 10 -4.08 10 0 10 C0 11.32 0 12.64 0 14 C-9.24 14 -18.48 14 -28 14 C-28 10.7 -28 7.4 -28 4 C-25 1 -25 1 -22.9140625 0.63671875 C-16.46353872 0.77981911 -16.46353872 0.77981911 -13.5 2.1875 C-9.87464422 3.36574063 -7.45623644 2.06711661 -3.98828125 0.7265625 C-2 0 -2 0 0 0 Z " fill="#CECAC9" transform="translate(165,126)"/>
<path d="M0 0 C2.875 1.0625 2.875 1.0625 5 3 C5.8125 6.6875 5.8125 6.6875 6 10 C9.63 10 13.26 10 17 10 C17 11.32 17 12.64 17 14 C7.76 14 -1.48 14 -11 14 C-11 4 -11 4 -9.4375 1.375 C-6.05297673 -0.53421825 -3.83294661 -0.47071274 0 0 Z " fill="#BFBABB" transform="translate(148,162)"/>
<path d="M0 0 C1.32 0.33 2.64 0.66 4 1 C4.07427838 4.34252724 4.06546953 6.8035914 3 10 C2.96125079 11.66621616 2.9549714 13.33394172 3 15 C4.32 15 5.64 15 7 15 C7 17.64 7 20.28 7 23 C6.01 23.33 5.02 23.66 4 24 C3.67 26.31 3.34 28.62 3 31 C3.66 31 4.32 31 5 31 C5 33.64 5 36.28 5 39 C2.59454362 40.20272819 1.05003047 40.10071472 -1.625 40.0625 C-2.85089844 40.04896484 -2.85089844 40.04896484 -4.1015625 40.03515625 C-4.72804688 40.02355469 -5.35453125 40.01195312 -6 40 C-6.33 42.31 -6.66 44.62 -7 47 C-7.33 47 -7.66 47 -8 47 C-8 44.03 -8 41.06 -8 38 C-6.88625 37.87625 -5.7725 37.7525 -4.625 37.625 C-0.96896323 37.3534187 -0.96896323 37.3534187 1 35 C0.67958603 32.39719432 0.67958603 32.39719432 0 30 C-2.97 29.67 -5.94 29.34 -9 29 C-9 27.02 -9 25.04 -9 23 C-8.36191406 22.93941406 -7.72382813 22.87882812 -7.06640625 22.81640625 C-5.82697266 22.69072266 -5.82697266 22.69072266 -4.5625 22.5625 C-3.73878906 22.48128906 -2.91507813 22.40007812 -2.06640625 22.31640625 C-0.01337975 22.21069185 -0.01337975 22.21069185 1 21 C1 19.35 1 17.7 1 16 C-2.3 15.67 -5.6 15.34 -9 15 C-9 13.02 -9 11.04 -9 9 C-7.01432292 8.77213542 -5.02864583 8.54427083 -3.04296875 8.31640625 C-0.80603607 8.02829265 -0.80603607 8.02829265 2 7 C1.34 4.69 0.68 2.38 0 0 Z " fill="#6B2522" transform="translate(37,153)"/>
<path d="M0 0 C2.37590142 3.70416126 2.20500286 6.92984573 2.125 11.25 C2.10695312 12.51328125 2.08890625 13.7765625 2.0703125 15.078125 C2.04710937 16.04234375 2.02390625 17.0065625 2 18 C1.01 18 0.02 18 -1 18 C-1 16.02 -1 14.04 -1 12 C-8.92 12 -16.84 12 -25 12 C-25 10.02 -25 8.04 -25 6 C-26.32 5.67 -27.64 5.34 -29 5 C-19.76 4.67 -10.52 4.34 -1 4 C-0.67 2.68 -0.34 1.36 0 0 Z " fill="#7E1A15" transform="translate(166,104)"/>
<path d="M0 0 C1.98 0 3.96 0 6 0 C6 0.66 6 1.32 6 2 C6.66 2 7.32 2 8 2 C8 9.59 8 17.18 8 25 C6 26 6 26 0 26 C0 17.42 0 8.84 0 0 Z " fill="#168FD2" transform="translate(194,164)"/>
<path d="M0 0 C6 0 6 0 8 1 C8 8.59 8 16.18 8 24 C7.34 24 6.68 24 6 24 C6 24.66 6 25.32 6 26 C4.02 26 2.04 26 0 26 C0 17.42 0 8.84 0 0 Z " fill="#F1A92F" transform="translate(194,136)"/>
<path d="M0 0 C6 0 6 0 8 1 C8 8.59 8 16.18 8 24 C7.34 24 6.68 24 6 24 C6 24.66 6 25.32 6 26 C4.02 26 2.04 26 0 26 C0 17.42 0 8.84 0 0 Z " fill="#20864B" transform="translate(194,108)"/>
<path d="M0 0 C10.56 0 21.12 0 32 0 C32 0.33 32 0.66 32 1 C23.57142857 3.28571429 23.57142857 3.28571429 19 3 C19 3.66 19 4.32 19 5 C11.10102717 6.08860427 3.30233278 6.12915059 -4.66015625 6.09765625 C-6.05976816 6.09578737 -7.45938073 6.09436569 -8.85899353 6.09336853 C-12.51347716 6.08958036 -16.16792 6.0797824 -19.8223877 6.06866455 C-23.56322681 6.05837016 -27.30407263 6.05385384 -31.04492188 6.04882812 C-38.36329969 6.0381562 -45.68164409 6.02112515 -53 6 C-53 5.67 -53 5.34 -53 5 C-51.8668335 4.98018066 -50.73366699 4.96036133 -49.56616211 4.93994141 C-45.28862392 4.86282119 -41.01137991 4.77428594 -36.73413086 4.68261719 C-34.89662561 4.64476025 -33.05905708 4.60983946 -31.22143555 4.578125 C-20.00083641 4.38218548 -9.08737303 3.81013994 2 2 C1.34 1.34 0.68 0.68 0 0 Z " fill="#868686" transform="translate(152,212)"/>
<path d="M0 0 C1.39895508 -0.01836914 1.39895508 -0.01836914 2.82617188 -0.03710938 C4.16325195 -0.04000977 4.16325195 -0.04000977 5.52734375 -0.04296875 C6.348396 -0.04707764 7.16944824 -0.05118652 8.01538086 -0.05541992 C10.0625 0.1875 10.0625 0.1875 12.0625 2.1875 C12.375 4.6875 12.375 4.6875 12.0625 7.1875 C9.0043611 9.22625926 8.35189991 9.44240139 4.90234375 9.453125 C4.10892578 9.45570313 3.31550781 9.45828125 2.49804688 9.4609375 C1.26151367 9.44933594 1.26151367 9.44933594 0 9.4375 C-0.82822266 9.44523438 -1.65644531 9.45296875 -2.50976562 9.4609375 C-3.30189453 9.45835937 -4.09402344 9.45578125 -4.91015625 9.453125 C-5.63468994 9.45086914 -6.35922363 9.44861328 -7.10571289 9.44628906 C-8.9375 9.1875 -8.9375 9.1875 -10.9375 7.1875 C-11.125 4.125 -11.125 4.125 -10.9375 1.1875 C-8.63740227 -1.11259773 -3.08959334 0.00212635 0 0 Z " fill="#B5B1B1" transform="translate(26.9375,152.8125)"/>
<path d="M0 0 C0.66 0.66 1.32 1.32 2 2 C1.44444444 6.55555556 1.44444444 6.55555556 0 8 C-6.21450479 8.8877864 -12.72967787 9.6993365 -19 9 C-21 7 -21 7 -21.1875 3.9375 C-21 1 -21 1 -20 0 C-13.43723477 -1.19323004 -6.54045136 -1.44644597 0 0 Z " fill="#91918E" transform="translate(37,182)"/>
<path d="M0 0 C-0.875 4.75 -0.875 4.75 -2 7 C-5.10398978 7.08710289 -8.20766548 7.14042309 -11.3125 7.1875 C-12.19357422 7.21263672 -13.07464844 7.23777344 -13.98242188 7.26367188 C-15.25375977 7.27817383 -15.25375977 7.27817383 -16.55078125 7.29296875 C-17.33106689 7.3086792 -18.11135254 7.32438965 -18.9152832 7.34057617 C-21.54459388 6.91103075 -22.44436333 6.13430193 -24 4 C-23.6875 1.3125 -23.6875 1.3125 -23 -1 C-4.14035088 -2.76023392 -4.14035088 -2.76023392 0 0 Z " fill="#9F9D9C" transform="translate(39,52)"/>
<path d="M0 0 C1.39895508 -0.01836914 1.39895508 -0.01836914 2.82617188 -0.03710938 C4.16325195 -0.04000977 4.16325195 -0.04000977 5.52734375 -0.04296875 C6.348396 -0.04707764 7.16944824 -0.05118652 8.01538086 -0.05541992 C10.0625 0.1875 10.0625 0.1875 12.0625 2.1875 C12.1875 4.8125 12.1875 4.8125 12.0625 7.1875 C6.3079121 10.06479395 -2.65447126 9.88825368 -8.9375 9.1875 C-10.9375 7.1875 -10.9375 7.1875 -11.125 4.125 C-10.73531213 -1.98010989 -4.96292433 0.00341564 0 0 Z " fill="#B2AFAD" transform="translate(26.9375,137.8125)"/>
<path d="M0 0 C0.3125 2.5 0.3125 2.5 0 5 C-3.0888095 8.0888095 -6.82435071 7.8589722 -11 8 C-21.44836957 7.55163043 -21.44836957 7.55163043 -23 6 C-23.04080783 4.00041636 -23.04254356 1.99954746 -23 0 C-17.11356549 -2.94321725 -5.38835322 -3.59223548 0 0 Z " fill="#989795" transform="translate(39,96)"/>
<path d="M0 0 C1.3320522 2.57530093 0.79102401 4.10967396 -0.0625 6.8125 C-1.65187556 8.40187556 -3.30149846 7.94231143 -5.5 7.9453125 C-6.84191406 7.94724609 -6.84191406 7.94724609 -8.2109375 7.94921875 C-9.15195312 7.94535156 -10.09296875 7.94148438 -11.0625 7.9375 C-12.47402344 7.94330078 -12.47402344 7.94330078 -13.9140625 7.94921875 C-14.80867188 7.94792969 -15.70328125 7.94664063 -16.625 7.9453125 C-17.45128906 7.94418457 -18.27757812 7.94305664 -19.12890625 7.94189453 C-21.0625 7.8125 -21.0625 7.8125 -22.0625 6.8125 C-22.10342937 4.47952567 -22.10491723 2.14544775 -22.0625 -0.1875 C-3.35778986 -1.93327295 -3.35778986 -1.93327295 0 0 Z " fill="#888789" transform="translate(38.0625,66.1875)"/>
<path d="M0 0 C1.39895508 -0.01836914 1.39895508 -0.01836914 2.82617188 -0.03710938 C4.16325195 -0.04000977 4.16325195 -0.04000977 5.52734375 -0.04296875 C6.348396 -0.04707764 7.16944824 -0.05118652 8.01538086 -0.05541992 C10.0625 0.1875 10.0625 0.1875 12.0625 2.1875 C11.73278521 5.48464793 11.4398161 6.8101839 9.0625 9.1875 C7.10717773 9.33862305 7.10717773 9.33862305 4.74609375 9.19921875 C3.47668945 9.12864258 3.47668945 9.12864258 2.18164062 9.05664062 C1.29669922 8.99669922 0.41175781 8.93675781 -0.5 8.875 C-1.38880859 8.82666016 -2.27761719 8.77832031 -3.19335938 8.72851562 C-9.7942497 8.3307503 -9.7942497 8.3307503 -10.9375 7.1875 C-11.0625 4.1875 -11.0625 4.1875 -10.9375 1.1875 C-8.63740227 -1.11259773 -3.08959334 0.00212635 0 0 Z " fill="#8D8A87" transform="translate(26.9375,79.8125)"/>
<path d="M0 0 C0.83378174 0.0707373 1.66756348 0.14147461 2.52661133 0.21435547 C15.00817805 1.14084578 27.46801157 1.15188086 39.97924805 1.13037109 C43.66264002 1.12503601 47.34590872 1.13033123 51.02929688 1.13671875 C65.04940445 1.14024822 79.00415865 0.83373015 93 0 C81.98584205 7.34277196 62.07906632 4.30103896 49.53979492 4.26074219 C45.57520213 4.25003431 41.61106331 4.26067624 37.64648438 4.2734375 C24.96113412 4.27941003 12.524395 4.1820456 0 2 C0 1.34 0 0.68 0 0 Z " fill="#757476" transform="translate(64,213)"/>
<path d="M0 0 C3.64581687 -0.02887512 7.29160463 -0.04675585 10.9375 -0.0625 C12.49887695 -0.07506836 12.49887695 -0.07506836 14.09179688 -0.08789062 C15.57583008 -0.09272461 15.57583008 -0.09272461 17.08984375 -0.09765625 C18.46450806 -0.10551147 18.46450806 -0.10551147 19.86694336 -0.11352539 C22 0 22 0 23 1 C23.1875 3.4375 23.1875 3.4375 23 6 C19.8736186 9.1263814 16.29099169 8.85114207 12 9 C3.1711146 8.5855573 3.1711146 8.5855573 0 7 C0 4.69 0 2.38 0 0 Z " fill="#A19C9B" transform="translate(16,22)"/>
<path d="M0 0 C1.40958984 -0.00193359 1.40958984 -0.00193359 2.84765625 -0.00390625 C3.83636719 -0.00003906 4.82507813 0.00382813 5.84375 0.0078125 C7.32681641 0.00201172 7.32681641 0.00201172 8.83984375 -0.00390625 C9.77957031 -0.00261719 10.71929687 -0.00132812 11.6875 0 C12.55568359 0.00112793 13.42386719 0.00225586 14.31835938 0.00341797 C16.34375 0.1328125 16.34375 0.1328125 17.34375 1.1328125 C17.53125 3.5703125 17.53125 3.5703125 17.34375 6.1328125 C15.34375 8.1328125 15.34375 8.1328125 13.29663086 8.37573242 C12.06505249 8.36956909 12.06505249 8.36956909 10.80859375 8.36328125 C9.91720703 8.36134766 9.02582031 8.35941406 8.10742188 8.35742188 C6.7084668 8.33905273 6.7084668 8.33905273 5.28125 8.3203125 C3.87649414 8.3193457 3.87649414 8.3193457 2.44335938 8.31835938 C-4.51605776 8.27300474 -4.51605776 8.27300474 -5.65625 7.1328125 C-5.78125 4.1328125 -5.78125 4.1328125 -5.65625 1.1328125 C-4.03424485 -0.48919265 -2.23601969 0.002905 0 0 Z " fill="#969694" transform="translate(21.65625,167.8671875)"/>
<path d="M0 0 C1.32 0 2.64 0 4 0 C4 1.65 4 3.3 4 5 C11.92 5 19.84 5 28 5 C28 6.65 28 8.3 28 10 C20.08 10 12.16 10 4 10 C4 11.32 4 12.64 4 14 C2.68 14 1.36 14 0 14 C0 9.38 0 4.76 0 0 Z " fill="#B68E8A" transform="translate(137,111)"/>
<path d="M0 0 C1.32 0 2.64 0 4 0 C4 2.64 4 5.28 4 8 C6.64 8 9.28 8 12 8 C12 5.69 12 3.38 12 1 C13.32 1 14.64 1 16 1 C16 3.31 16 5.62 16 8 C19.96 8 23.92 8 28 8 C28 9.32 28 10.64 28 12 C18.76 12 9.52 12 0 12 C0 8.04 0 4.08 0 0 Z " fill="#DCD5D3" transform="translate(137,96)"/>
<path d="M0 0 C0.66 0.66 1.32 1.32 2 2 C1.44444444 6.55555556 1.44444444 6.55555556 0 8 C-1.47652664 8.09880797 -2.95767236 8.13079245 -4.4375 8.1328125 C-5.77941406 8.13474609 -5.77941406 8.13474609 -7.1484375 8.13671875 C-8.08945312 8.13285156 -9.03046875 8.12898438 -10 8.125 C-11.41152344 8.13080078 -11.41152344 8.13080078 -12.8515625 8.13671875 C-13.74617188 8.13542969 -14.64078125 8.13414063 -15.5625 8.1328125 C-16.38878906 8.13168457 -17.21507812 8.13055664 -18.06640625 8.12939453 C-20 8 -20 8 -21 7 C-21.04063832 5.33382885 -21.042721 3.66611905 -21 2 C-15.40160679 -0.79919661 -6.1672815 -0.78420174 0 0 Z " fill="#9E9B99" transform="translate(37,36)"/>
<path d="M0 0 C11.01346838 -0.09263842 22.02684422 -0.16373378 33.04062271 -0.20724869 C38.1546631 -0.22813264 43.26843713 -0.25646516 48.38232422 -0.30175781 C53.31658296 -0.34518655 58.25058535 -0.36913102 63.18502045 -0.37950897 C65.06853014 -0.38690568 66.95202564 -0.40134961 68.83542633 -0.42292023 C71.47164848 -0.45191492 74.10680838 -0.45595769 76.74316406 -0.45410156 C77.52359573 -0.46848267 78.3040274 -0.48286377 79.10810852 -0.49768066 C82.76628764 -0.46977027 84.6217356 -0.30494774 87.51605225 2.02838135 C88.005755 2.6790155 88.49545776 3.32964966 89 4 C87.375 10.75 87.375 10.75 84 13 C83.67 13.33 83.34 13.66 83 14 C82.01 14.33 81.02 14.66 80 15 C80 12.03 80 9.06 80 6 C81.32 6.33 82.64 6.66 84 7 C83.505 5.515 83.505 5.515 83 4 C78.47741904 1.95185397 74.13753595 1.69626747 69.25048828 1.68115234 C68.49858719 1.67110672 67.7466861 1.6610611 66.97200012 1.65071106 C64.50477817 1.62000045 62.03766413 1.60287798 59.5703125 1.5859375 C57.85251953 1.56721607 56.13473565 1.54764193 54.41696167 1.5272522 C49.90927508 1.47602793 45.4015587 1.4363504 40.89373779 1.39910889 C36.28845918 1.35900825 31.68330342 1.3079436 27.078125 1.2578125 C18.05216976 1.1611682 9.02614499 1.07672677 0 1 C0 0.67 0 0.34 0 0 Z " fill="#B0231B" transform="translate(104,1)"/>
<path d="M0 0 C10.23 0 20.46 0 31 0 C31.98224245 3.92896979 32.2981102 6.97551231 32 11 C31.01 11.66 30.02 12.32 29 13 C28.731875 12.05125 28.46375 11.1025 28.1875 10.125 C27.25013412 6.74732727 27.25013412 6.74732727 24 5 C21.82588532 4.69327059 21.82588532 4.69327059 19.4375 4.734375 C18.55835938 4.73179688 17.67921875 4.72921875 16.7734375 4.7265625 C15.85820312 4.73429687 14.94296875 4.74203125 14 4.75 C13.08476562 4.74226563 12.16953125 4.73453125 11.2265625 4.7265625 C9.90785156 4.73042969 9.90785156 4.73042969 8.5625 4.734375 C7.75941406 4.73663086 6.95632812 4.73888672 6.12890625 4.74121094 C3.70086546 4.87424817 3.70086546 4.87424817 1 7 C0.67 4.69 0.34 2.38 0 0 Z " fill="#A31612" transform="translate(136,32)"/>
<path d="M0 0 C1.32 0 2.64 0 4 0 C4 4.29 4 8.58 4 13 C-5.24 13 -14.48 13 -24 13 C-24 11.68 -24 10.36 -24 9 C-16.08 9 -8.16 9 0 9 C0 6.03 0 3.06 0 0 Z " fill="#EAE0DD" transform="translate(161,62)"/>
<path d="M0 0 C2 3 2 3 2 6 C1.34 6 0.68 6 0 6 C-0.33 7.65 -0.66 9.3 -1 11 C0.2684375 10.6596875 0.2684375 10.6596875 1.5625 10.3125 C5.23455373 9.97867693 6.76958269 10.76102535 10.03149414 12.24536133 C13.40460573 13.53846413 16.86325987 13.83105702 20.4375 14.1875 C21.16904297 14.26935547 21.90058594 14.35121094 22.65429688 14.43554688 C24.43514466 14.63341885 26.21744927 14.81810707 28 15 C28 15.33 28 15.66 28 16 C16.47854499 16.21242223 5.33373096 16.35506098 -6 14 C-6 13.34 -6 12.68 -6 12 C-7.65 12 -9.3 12 -11 12 C-11 11.67 -11 11.34 -11 11 C-8.69 11 -6.38 11 -4 11 C-4 9.35 -4 7.7 -4 6 C-5.32 5.34 -6.64 4.68 -8 4 C-6.865625 3.71125 -5.73125 3.4225 -4.5625 3.125 C-3.386875 2.75375 -2.21125 2.3825 -1 2 C-0.67 1.34 -0.34 0.68 0 0 Z " fill="#DEDEDE" transform="translate(28,204)"/>
<path d="M0 0 C2.875 1.0625 2.875 1.0625 5 3 C5.8125 6.6875 5.8125 6.6875 6 10 C5.67 8.68 5.34 7.36 5 6 C4.34 6 3.68 6 3 6 C3 7.32 3 8.64 3 10 C-0.63 10 -4.26 10 -8 10 C-8 8.68 -8 7.36 -8 6 C-8.66 6 -9.32 6 -10 6 C-9.625 3.5625 -9.625 3.5625 -9 1 C-5.93570224 -0.53214888 -3.3834358 -0.22938548 0 0 Z " fill="#B5A0A0" transform="translate(148,162)"/>
<path d="M0 0 C6.27 0 12.54 0 19 0 C19.33 1.65 19.66 3.3 20 5 C19 6 19 6 17.14233398 6.11352539 C16.35157471 6.10828857 15.56081543 6.10305176 14.74609375 6.09765625 C13.89208984 6.09443359 13.03808594 6.09121094 12.15820312 6.08789062 C11.26037109 6.07951172 10.36253906 6.07113281 9.4375 6.0625 C8.53580078 6.05798828 7.63410156 6.05347656 6.70507812 6.04882812 C4.46998686 6.03700225 2.23502563 6.0205222 0 6 C0 4.02 0 2.04 0 0 Z " fill="#722624" transform="translate(141,149)"/>
<path d="M0 0 C2.31 0 4.62 0 7 0 C6.67 1.32 6.34 2.64 6 4 C6 3.34 6 2.68 6 2 C5.34 2 4.68 2 4 2 C4.33 3.98 4.66 5.96 5 8 C3.68 8.33 2.36 8.66 1 9 C0.67 10.32 0.34 11.64 0 13 C-1.03125 12.835 -2.0625 12.67 -3.125 12.5 C-6.48244326 12.06678152 -9.62336157 11.91764297 -13 12 C-13.042721 10.33388095 -13.04063832 8.66617115 -13 7 C-12 6 -12 6 -9.93359375 5.90234375 C-8.69802734 5.91974609 -8.69802734 5.91974609 -7.4375 5.9375 C-6.61121094 5.94652344 -5.78492188 5.95554687 -4.93359375 5.96484375 C-4.29550781 5.97644531 -3.65742187 5.98804688 -3 6 C-2.01 4.02 -1.02 2.04 0 0 Z " fill="#B8241C" transform="translate(41,24)"/>
<path d="M0 0 C6.27 0 12.54 0 19 0 C19.33 1.65 19.66 3.3 20 5 C18.4779041 6.5220959 17.11789918 6.12959521 15 6.1328125 C14.195625 6.13410156 13.39125 6.13539062 12.5625 6.13671875 C11.716875 6.13285156 10.87125 6.12898438 10 6.125 C9.154375 6.12886719 8.30875 6.13273437 7.4375 6.13671875 C6.633125 6.13542969 5.82875 6.13414063 5 6.1328125 C4.2575 6.13168457 3.515 6.13055664 2.75 6.12939453 C1 6 1 6 0 5 C0 3.35 0 1.7 0 0 Z " fill="#AA302A" transform="translate(141,40)"/>
<path d="M0 0 C3.90230323 0.05664634 4.54187903 0.31862574 7.75 2.9375 C8.389375 3.7625 9.02875 4.5875 9.6875 5.4375 C8.3675 5.1075 7.0475 4.7775 5.6875 4.4375 C5.708125 5.241875 5.72875 6.04625 5.75 6.875 C5.6875 9.4375 5.6875 9.4375 4.6875 10.4375 C2.83858054 10.67113881 0.98261969 10.85053635 -0.875 11 C-2.39287109 11.12568359 -2.39287109 11.12568359 -3.94140625 11.25390625 C-4.72386719 11.31449219 -5.50632813 11.37507812 -6.3125 11.4375 C-6.3125 10.1175 -6.3125 8.7975 -6.3125 7.4375 C-5.6525 7.4375 -4.9925 7.4375 -4.3125 7.4375 C-4.9725 5.7875 -5.6325 4.1375 -6.3125 2.4375 C-3.94209692 0.06709692 -3.24947247 0.09284207 0 0 Z " fill="#CBC0BE" transform="translate(144.3125,126.5625)"/>
<path d="M0 0 C0.91587891 -0.01224609 1.83175781 -0.02449219 2.77539062 -0.03710938 C3.66033203 -0.03904297 4.54527344 -0.04097656 5.45703125 -0.04296875 C6.26760986 -0.04707764 7.07818848 -0.05118652 7.91333008 -0.05541992 C10.40461392 0.21069145 12.03251038 0.94130417 14.1875 2.1875 C14.1875 4.8275 14.1875 7.4675 14.1875 10.1875 C13.1975 10.1875 12.2075 10.1875 11.1875 10.1875 C10.8575 8.5375 10.5275 6.8875 10.1875 5.1875 C9.62240723 5.16244385 9.05731445 5.1373877 8.47509766 5.11157227 C5.92066258 4.99570044 3.3666045 4.87293463 0.8125 4.75 C-0.07695312 4.71068359 -0.96640625 4.67136719 -1.8828125 4.63085938 C-2.73359375 4.58896484 -3.584375 4.54707031 -4.4609375 4.50390625 C-5.24645996 4.46724854 -6.03198242 4.43059082 -6.84130859 4.39282227 C-8.8125 4.1875 -8.8125 4.1875 -10.8125 3.1875 C-11.1425 3.8475 -11.4725 4.5075 -11.8125 5.1875 C-10.27313979 -1.62966664 -6.27479722 0.00436053 0 0 Z " fill="#C4C1BC" transform="translate(149.8125,144.8125)"/>
<path d="M0 0 C29.04 0 58.08 0 88 0 C88 0.33 88 0.66 88 1 C66.88 1 45.76 1 24 1 C24 1.66 24 2.32 24 3 C7.1070615 2.03644647 7.1070615 2.03644647 0 1 C0 0.67 0 0.34 0 0 Z " fill="#756563" transform="translate(64,212)"/>
<path d="M0 0 C9.24 0 18.48 0 28 0 C28 1.32 28 2.64 28 4 C18.76 4 9.52 4 0 4 C0 2.68 0 1.36 0 0 Z " fill="#EFE5E0" transform="translate(137,55)"/>
<path d="M0 0 C0.04125 0.61875 0.0825 1.2375 0.125 1.875 C0.41375 2.57625 0.7025 3.2775 1 4 C3.99615946 5.3045656 3.99615946 5.3045656 7 6 C7.1875 8.375 7.1875 8.375 7 11 C-2.58540256 17.39026837 -17.03682976 16.14035353 -28 16 C-28 15.67 -28 15.34 -28 15 C-26.70964844 14.87882813 -25.41929687 14.75765625 -24.08984375 14.6328125 C-22.37236253 14.46387992 -20.65491642 14.29459013 -18.9375 14.125 C-18.08994141 14.04636719 -17.24238281 13.96773437 -16.36914062 13.88671875 C-11.35636691 13.38350594 -6.79625677 12.54885904 -2 11 C-2.3403125 10.2265625 -2.3403125 10.2265625 -2.6875 9.4375 C-3.16513722 5.71192968 -1.61290239 3.35483696 0 0 Z " fill="#C3C1C1" transform="translate(193,203)"/>
<path d="M0 0 C0.33 0.99 0.66 1.98 1 3 C1.66 3 2.32 3 3 3 C3 5.97 3 8.94 3 12 C-0.83724172 12.90413673 -4.37502274 13.10576898 -8.3125 13.0625 C-9.38113281 13.05347656 -10.44976563 13.04445313 -11.55078125 13.03515625 C-12.35902344 13.02355469 -13.16726562 13.01195312 -14 13 C-14 11.02 -14 9.04 -14 7 C-10.37 7 -6.74 7 -3 7 C-2.67 6.34 -2.34 5.68 -2 5 C-1.34 5 -0.68 5 0 5 C0 3.35 0 1.7 0 0 Z " fill="#B22520" transform="translate(42,37)"/>
<path d="M0 0 C6.27 0 12.54 0 19 0 C19.33 1.65 19.66 3.3 20 5 C13.4 5 6.8 5 0 5 C0 3.35 0 1.7 0 0 Z " fill="#901F19" transform="translate(141,84)"/>
<path d="M0 0 C0.33 0 0.66 0 1 0 C1.125 2.375 1.125 2.375 1 5 C-2.11683189 8.11683189 -5.72153992 7.85474364 -10 8 C-13.04042901 7.80768371 -15.97972342 7.43146808 -19 7 C-19 5.68 -19 4.36 -19 3 C-13.9492823 1.86074037 -8.92137715 1.60492951 -3.765625 1.28125 C-1.09312023 1.30376634 -1.09312023 1.30376634 0 0 Z " fill="#8D8C8A" transform="translate(38,125)"/>
<path d="M0 0 C0.66 1.32 1.32 2.64 2 4 C3.32 4 4.64 4 6 4 C6.02694851 5.95825873 6.04637218 7.91662226 6.0625 9.875 C6.07410156 10.96554688 6.08570313 12.05609375 6.09765625 13.1796875 C6 16 6 16 5 18 C3.02 18 1.04 18 -1 18 C-1.02707139 15.75006641 -1.04642829 13.50003905 -1.0625 11.25 C-1.07410156 9.99703125 -1.08570313 8.7440625 -1.09765625 7.453125 C-1.02021027 4.71463499 -0.82780815 2.58119707 0 0 Z " fill="#0D6934" transform="translate(195,116)"/>
<path d="M0 0 C0.99 0.66 1.98 1.32 3 2 C2.67 2.99 2.34 3.98 2 5 C-3.2509913 6.96055289 -8.57140465 7.57734364 -14.125 8.125 C-15.36600464 8.25237549 -15.36600464 8.25237549 -16.63208008 8.38232422 C-23.44288987 9.03813599 -30.15704873 9.22113667 -37 9 C-37 8.67 -37 8.34 -37 8 C-30.62694402 7.25492456 -24.41688675 6.89650183 -18 7 C-18 6.34 -18 5.68 -18 5 C-16.86820313 4.72285156 -15.73640625 4.44570312 -14.5703125 4.16015625 C-13.08851098 3.79439512 -11.60674182 3.42850289 -10.125 3.0625 C-9.37863281 2.88009766 -8.63226563 2.69769531 -7.86328125 2.50976562 C-3.82960875 1.54790308 -3.82960875 1.54790308 0 0 Z " fill="#A5A5A5" transform="translate(189,210)"/>
<path d="M0 0 C0.33 0 0.66 0 1 0 C1.85298376 3.67387495 2.10789471 7.0447393 2.0625 10.8125 C2.05347656 11.78832031 2.04445312 12.76414063 2.03515625 13.76953125 C2.02355469 14.50558594 2.01195312 15.24164063 2 16 C3.65 16 5.3 16 7 16 C7.125 23.75 7.125 23.75 6 26 C4.02 26 2.04 26 0 26 C0 17.42 0 8.84 0 0 Z " fill="#E78D15" transform="translate(194,136)"/>
<path d="M0 0 C0.33 0 0.66 0 1 0 C1 2.97 1 5.94 1 9 C-6.92 9 -14.84 9 -23 9 C-23 8.67 -23 8.34 -23 8 C-15.41 8 -7.82 8 0 8 C0 7.34 0 6.68 0 6 C-9.405 6.495 -9.405 6.495 -19 7 C-19 6.01 -19 5.02 -19 4 C-19.99 4 -20.98 4 -22 4 C-21.67 3.34 -21.34 2.68 -21 2 C-14.07 2.33 -7.14 2.66 0 3 C0 2.01 0 1.02 0 0 Z " fill="#9E2B29" transform="translate(160,62)"/>
<path d="M0 0 C0.33 0 0.66 0 1 0 C1.1875 2.375 1.1875 2.375 1 5 C-2.10085571 7.06723714 -2.72931681 7.24497423 -6.23046875 7.1953125 C-7.03291016 7.18886719 -7.83535156 7.18242187 -8.66210938 7.17578125 C-9.49548828 7.15902344 -10.32886719 7.14226562 -11.1875 7.125 C-12.03248047 7.11597656 -12.87746094 7.10695312 -13.74804688 7.09765625 C-15.83215243 7.07410703 -17.91611217 7.03823647 -20 7 C-20.66 5.68 -21.32 4.36 -22 3 C-19.27093526 2.83150207 -16.54176829 2.6651397 -13.8125 2.5 C-13.04357422 2.45230469 -12.27464844 2.40460938 -11.48242188 2.35546875 C-7.648496 2.12510411 -3.84309823 1.9383872 0 2 C0 1.34 0 0.68 0 0 Z " fill="#919290" transform="translate(38,155)"/>
<path d="M0 0 C0.99 0 1.98 0 3 0 C3 1.32 3 2.64 3 4 C3.99 3.67 4.98 3.34 6 3 C5.5 5.375 5.5 5.375 4 8 C1.33474712 9.08241903 -1.1407915 9.49272107 -4 10 C-3.01 11.485 -3.01 11.485 -2 13 C-5.96 13 -9.92 13 -14 13 C-14 8 -14 8 -13 7 C-10.76860789 6.96831695 -8.55370281 7.06802881 -6.32421875 7.16015625 C-3.75885099 6.98338301 -2.2031736 6.28560473 0 5 C0 3.35 0 1.7 0 0 Z " fill="#9E2520" transform="translate(42,96)"/>
<path d="M0 0 C6.6 0 13.2 0 20 0 C20.33 1.32 20.66 2.64 21 4 C18.14839609 4.81434143 15.63373869 5.11881242 12.671875 5.09765625 C11.87265625 5.09443359 11.0734375 5.09121094 10.25 5.08789062 C9.425 5.07951172 8.6 5.07113281 7.75 5.0625 C6.90953125 5.05798828 6.0690625 5.05347656 5.203125 5.04882812 C3.13538599 5.03707961 1.06768376 5.01914522 -1 5 C-0.67 3.35 -0.34 1.7 0 0 Z " fill="#B3B3B1" transform="translate(17,80)"/>
<path d="M0 0 C0.66 1.32 1.32 2.64 2 4 C-0.40059817 5.20029908 -1.89360649 5.11459743 -4.5703125 5.09765625 C-5.46621094 5.09443359 -6.36210937 5.09121094 -7.28515625 5.08789062 C-8.22230469 5.07951172 -9.15945312 5.07113281 -10.125 5.0625 C-11.06988281 5.05798828 -12.01476562 5.05347656 -12.98828125 5.04882812 C-15.32558387 5.03702357 -17.66276061 5.02055759 -20 5 C-20 4.01 -20 3.02 -20 2 C-14.2745894 -0.8627053 -6.27881973 -0.11627444 0 0 Z " fill="#C3C0BD" transform="translate(36,94)"/>
<path d="M0 0 C9.57 0 19.14 0 29 0 C27.68 0.99 26.36 1.98 25 3 C24.67 3.33 24.34 3.66 24 4 C22.29227642 4.08713831 20.58101351 4.10700007 18.87109375 4.09765625 C17.31938477 4.09282227 17.31938477 4.09282227 15.73632812 4.08789062 C14.64771484 4.07951172 13.55910156 4.07113281 12.4375 4.0625 C10.7987793 4.05573242 10.7987793 4.05573242 9.12695312 4.04882812 C6.41791505 4.03699826 3.70898401 4.02051543 1 4 C0.67 2.68 0.34 1.36 0 0 Z " fill="#6B110F" transform="translate(138,141)"/>
<path d="M0 0 C0.33 0 0.66 0 1 0 C1 1.65 1 3.3 1 5 C-5.07804785 8.03902392 -13.37693443 7.12444173 -20 7 C-20.66 5.68 -21.32 4.36 -22 3 C-19.14839609 2.18565857 -16.63373869 1.88118758 -13.671875 1.90234375 C-12.47304688 1.90717773 -12.47304688 1.90717773 -11.25 1.91210938 C-10.425 1.92048828 -9.6 1.92886719 -8.75 1.9375 C-7.90953125 1.94201172 -7.0690625 1.94652344 -6.203125 1.95117188 C-4.13538599 1.96292039 -2.06768376 1.98085478 0 2 C0 1.34 0 0.68 0 0 Z " fill="#9B9A99" transform="translate(38,140)"/>
<path d="M0 0 C1.9375 0.375 1.9375 0.375 4 1 C5.52150158 4.04300316 5.23899393 6.654085 5 10 C4.01 10.66 3.02 11.32 2 12 C1.34 11.67 0.68 11.34 0 11 C-1.3734635 10.84995027 -2.7528526 10.75161994 -4.1328125 10.68359375 C-4.93847656 10.64169922 -5.74414062 10.59980469 -6.57421875 10.55664062 C-7.41597656 10.51732422 -8.25773438 10.47800781 -9.125 10.4375 C-9.97449219 10.39431641 -10.82398438 10.35113281 -11.69921875 10.30664062 C-13.79928223 10.20045764 -15.89961948 10.09971503 -18 10 C-18 9.67 -18 9.34 -18 9 C-11.73 9 -5.46 9 1 9 C0.67 7.68 0.34 6.36 0 5 C-5.94 4.67 -11.88 4.34 -18 4 C-18 3.67 -18 3.34 -18 3 C-12.06 3 -6.12 3 0 3 C0 2.01 0 1.02 0 0 Z " fill="#D4BAB6" transform="translate(160,80)"/>
<path d="M0 0 C1.32 0.66 2.64 1.32 4 2 C4 5.3 4 8.6 4 12 C3.01 12.33 2.02 12.66 1 13 C1 11.68 1 10.36 1 9 C-8.24 9 -17.48 9 -27 9 C-27.33 10.32 -27.66 11.64 -28 13 C-28 11.35 -28 9.7 -28 8 C-18.76 8 -9.52 8 0 8 C0 7.34 0 6.68 0 6 C-1.32 5.34 -2.64 4.68 -4 4 C-2.68 2.68 -1.36 1.36 0 0 Z " fill="#B0514C" transform="translate(164,46)"/>
<path d="M0 0 C0 0.99 0 1.98 0 3 C-3.7223401 4.24078003 -7.18796033 4.14555459 -11.0625 4.125 C-11.79533203 4.12886719 -12.52816406 4.13273438 -13.28320312 4.13671875 C-18.74663018 4.12668491 -18.74663018 4.12668491 -21 3 C-20.67 2.01 -20.34 1.02 -20 0 C-13.14011227 -0.94870788 -6.85988773 -0.94870788 0 0 Z " fill="#BAB9B7" transform="translate(37,182)"/>
<path d="M0 0 C1.27617187 0.00483398 1.27617187 0.00483398 2.578125 0.00976562 C3.46757812 0.01814453 4.35703125 0.02652344 5.2734375 0.03515625 C6.170625 0.03966797 7.0678125 0.04417969 7.9921875 0.04882812 C10.21100398 0.06063034 12.42968768 0.0770947 14.6484375 0.09765625 C14.6484375 1.08765625 14.6484375 2.07765625 14.6484375 3.09765625 C13.32779297 3.18853516 13.32779297 3.18853516 11.98046875 3.28125 C10.23830078 3.40693359 10.23830078 3.40693359 8.4609375 3.53515625 C6.73810547 3.65697266 6.73810547 3.65697266 4.98046875 3.78125 C2.13245579 4.05169437 -0.56366732 4.47287372 -3.3515625 5.09765625 C-3.3515625 6.08765625 -3.3515625 7.07765625 -3.3515625 8.09765625 C-4.3415625 7.76765625 -5.3315625 7.43765625 -6.3515625 7.09765625 C-6.3515625 5.11765625 -6.3515625 3.13765625 -6.3515625 1.09765625 C-4.00303722 -0.07660639 -2.61382185 -0.01742548 0 0 Z " fill="#C3C4C3" transform="translate(22.3515625,123.90234375)"/>
<path d="M0 0 C9.24 0 18.48 0 28 0 C24 5 24 5 21.80175781 5.56762695 C21.02670898 5.54144287 20.25166016 5.51525879 19.453125 5.48828125 C18.60878906 5.47216797 17.76445312 5.45605469 16.89453125 5.43945312 C16.02183594 5.39755859 15.14914063 5.35566406 14.25 5.3125 C13.36183594 5.28994141 12.47367188 5.26738281 11.55859375 5.24414062 C9.37067188 5.18532552 7.18620329 5.10321268 5 5 C5.66 4.01 6.32 3.02 7 2 C4.69 1.67 2.38 1.34 0 1 C0 0.67 0 0.34 0 0 Z " fill="#9F3A34" transform="translate(137,75)"/>
<path d="M0 0 C0 0.99 0 1.98 0 3 C-2.14526099 3.19393875 -4.29123677 3.37998676 -6.4375 3.5625 C-8.22994141 3.71912109 -8.22994141 3.71912109 -10.05859375 3.87890625 C-11.02925781 3.91886719 -11.99992187 3.95882812 -13 4 C-13.33 3.67 -13.66 3.34 -14 3 C-16.67058851 2.85884839 -19.32432238 2.95752893 -22 3 C-22.33 3.66 -22.66 4.32 -23 5 C-22.67 3.35 -22.34 1.7 -22 0 C-3.46067416 -1.73033708 -3.46067416 -1.73033708 0 0 Z " fill="#C3BFBD" transform="translate(38,51)"/>
<path d="M0 0 C0.66 1.32 1.32 2.64 2 4 C-1.29119935 4.1964031 -4.58296934 4.38060745 -7.875 4.5625 C-8.81214844 4.61857422 -9.74929687 4.67464844 -10.71484375 4.73242188 C-11.61074219 4.78076172 -12.50664062 4.82910156 -13.4296875 4.87890625 C-14.25710449 4.9260376 -15.08452148 4.97316895 -15.93701172 5.02172852 C-18 5 -18 5 -20 4 C-20 3.01 -20 2.02 -20 1 C-13.31184516 0.37577221 -6.71884955 -0.12920865 0 0 Z " fill="#C6BFBE" transform="translate(36,65)"/>
<path d="M0 0 C1.37478516 0.01740234 1.37478516 0.01740234 2.77734375 0.03515625 C3.69644531 0.04417969 4.61554687 0.05320313 5.5625 0.0625 C6.27277344 0.07410156 6.98304687 0.08570313 7.71484375 0.09765625 C7.71484375 1.08765625 7.71484375 2.07765625 7.71484375 3.09765625 C9.08769531 3.08025391 9.08769531 3.08025391 10.48828125 3.0625 C12.27105469 3.04896484 12.27105469 3.04896484 14.08984375 3.03515625 C15.27320312 3.02355469 16.4565625 3.01195312 17.67578125 3 C20.71484375 3.09765625 20.71484375 3.09765625 22.71484375 4.09765625 C24.91920775 4.32715944 27.12876548 4.50841558 29.33984375 4.66015625 C30.52835938 4.74394531 31.716875 4.82773438 32.94140625 4.9140625 C33.85664062 4.97464844 34.771875 5.03523437 35.71484375 5.09765625 C35.71484375 5.42765625 35.71484375 5.75765625 35.71484375 6.09765625 C26.61392904 6.44084717 17.9126256 6.06599244 8.90234375 4.72265625 C8.03706055 4.59656982 7.17177734 4.4704834 6.28027344 4.34057617 C2.36327102 3.7174167 0.08599128 3.34508794 -3.28515625 1.09765625 C-2.28515625 0.09765625 -2.28515625 0.09765625 0 0 Z " fill="#9B9899" transform="translate(40.28515625,211.90234375)"/>
<path d="M0 0 C0 0.33 0 0.66 0 1 C-8.42857143 3.28571429 -8.42857143 3.28571429 -13 3 C-13 3.66 -13 4.32 -13 5 C-19.38226945 5.82351864 -25.56744599 6.12086218 -32 6 C-32 5.34 -32 4.68 -32 4 C-28.57767028 2.85922343 -25.91326783 2.90184883 -22.3125 2.9375 C-20.54326172 2.95103516 -20.54326172 2.95103516 -18.73828125 2.96484375 C-17.83464844 2.97644531 -16.93101562 2.98804688 -16 3 C-16 2.34 -16 1.68 -16 1 C-10.59255982 0.22750855 -5.46137814 -0.09752461 0 0 Z " fill="#919090" transform="translate(184,212)"/>
<path d="M0 0 C1.98 0 3.96 0 6 0 C5.67 2.64 5.34 5.28 5 8 C4.195625 7.690625 4.195625 7.690625 3.375 7.375 C0.14409099 6.86485647 -1.96662837 7.86248564 -5 9 C-7.74657855 9.96938066 -8.51948246 10.20021564 -11.25 9.0625 C-11.8275 8.711875 -12.405 8.36125 -13 8 C-13 7.34 -13 6.68 -13 6 C-12.31292969 5.93941406 -11.62585938 5.87882812 -10.91796875 5.81640625 C-10.01691406 5.73261719 -9.11585937 5.64882812 -8.1875 5.5625 C-6.84751953 5.44068359 -6.84751953 5.44068359 -5.48046875 5.31640625 C-2.87256441 5.06510233 -2.87256441 5.06510233 0 4 C0 2.68 0 1.36 0 0 Z " fill="#97221D" transform="translate(42,112)"/>
<path d="M0 0 C2 3 2 3 2 6 C1.34 6 0.68 6 0 6 C-0.33 7.65 -0.66 9.3 -1 11 C0.2684375 10.6596875 0.2684375 10.6596875 1.5625 10.3125 C6.00577003 9.90856636 8.05395199 11.02697599 12 13 C12 13.33 12 13.66 12 14 C5.80112515 14.37952295 1.5522888 13.8352113 -4 11 C-4 9.35 -4 7.7 -4 6 C-5.32 5.34 -6.64 4.68 -8 4 C-6.865625 3.71125 -5.73125 3.4225 -4.5625 3.125 C-3.386875 2.75375 -2.21125 2.3825 -1 2 C-0.67 1.34 -0.34 0.68 0 0 Z " fill="#D0CECF" transform="translate(28,204)"/>
<path d="M0 0 C7.59 0 15.18 0 23 0 C23 0.99 23 1.98 23 3 C15.41 3 7.82 3 0 3 C0 2.01 0 1.02 0 0 Z " fill="#DCDEDD" transform="translate(141,117)"/>
<path d="M0 0 C0.97130859 -0.020625 1.94261719 -0.04125 2.94335938 -0.0625 C3.87083984 -0.06765625 4.79832031 -0.0728125 5.75390625 -0.078125 C6.60412354 -0.0874707 7.45434082 -0.09681641 8.33032227 -0.10644531 C9.02569092 0.01118164 9.72105957 0.12880859 10.4375 0.25 C11.0975 1.24 11.7575 2.23 12.4375 3.25 C4.1875 3.25 -4.0625 3.25 -12.5625 3.25 C-12.8925 2.59 -13.2225 1.93 -13.5625 1.25 C-9.08826334 -0.24141222 -4.68677532 0.02497948 0 0 Z " fill="#611816" transform="translate(45.5625,207.75)"/>
<path d="M0 0 C3.96 0.33 7.92 0.66 12 1 C12.33 2.65 12.66 4.3 13 6 C8.71 6 4.42 6 0 6 C0 4.02 0 2.04 0 0 Z " fill="#B12422" transform="translate(28,59)"/>
<path d="M0 0 C8.25 0 16.5 0 25 0 C24.67 0.66 24.34 1.32 24 2 C21.35139573 2.59355614 18.70802678 2.74209269 16 3 C16 3.66 16 4.32 16 5 C16.33 5.33 16.66 5.66 17 6 C17 6.99 17 7.98 17 9 C15.68 9 14.36 9 13 9 C12.67 6.69 12.34 4.38 12 2 C11.30132812 2.02320312 10.60265625 2.04640625 9.8828125 2.0703125 C8.97273437 2.08835937 8.06265625 2.10640625 7.125 2.125 C6.22007812 2.14820312 5.31515625 2.17140625 4.3828125 2.1953125 C2 2 2 2 0 0 Z " fill="#86120F" transform="translate(140,94)"/>
<path d="M0 0 C2.64 0 5.28 0 8 0 C9.18082522 3.69007882 9.28527337 7.14880946 9 11 C8.01 11.66 7.02 12.32 6 13 C5.731875 12.071875 5.46375 11.14375 5.1875 10.1875 C4.04142433 7.11119161 3.26517658 6.16669064 1 4 C0.3125 1.8125 0.3125 1.8125 0 0 Z " fill="#A9211C" transform="translate(159,32)"/>
<path d="M0 0 C7.92 0 15.84 0 24 0 C24 0.33 24 0.66 24 1 C21.36 1 18.72 1 16 1 C16 1.66 16 2.32 16 3 C7.97875848 3.71413279 0.05358138 4.14525497 -8 4 C-8 3.67 -8 3.34 -8 3 C-4.7 2.67 -1.4 2.34 2 2 C1.34 1.34 0.68 0.68 0 0 Z " fill="#807A7A" transform="translate(152,212)"/>
<path d="M0 0 C3.29164829 -0.02895225 6.58326399 -0.0467823 9.875 -0.0625 C10.81214844 -0.07087891 11.74929687 -0.07925781 12.71484375 -0.08789062 C14.05869141 -0.09272461 14.05869141 -0.09272461 15.4296875 -0.09765625 C16.67081299 -0.10551147 16.67081299 -0.10551147 17.93701172 -0.11352539 C20 0 20 0 22 1 C22 1.66 22 2.32 22 3 C15.4 3 8.8 3 2 3 C2 2.34 2 1.68 2 1 C1.34 0.67 0.68 0.34 0 0 Z " fill="#E8ECEB" transform="translate(140,90)"/>
<path d="M0 0 C6.93 0 13.86 0 21 0 C21 0.99 21 1.98 21 3 C11.595 3.495 11.595 3.495 2 4 C2 3.01 2 2.02 2 1 C1.34 0.67 0.68 0.34 0 0 Z " fill="#EEEEEE" transform="translate(139,80)"/>
<path d="M0 0 C1.27617187 0.00483398 1.27617187 0.00483398 2.578125 0.00976562 C3.46757812 0.01814453 4.35703125 0.02652344 5.2734375 0.03515625 C6.170625 0.03966797 7.0678125 0.04417969 7.9921875 0.04882812 C10.21100398 0.06063034 12.42968768 0.0770947 14.6484375 0.09765625 C14.6484375 1.08765625 14.6484375 2.07765625 14.6484375 3.09765625 C13.97296875 3.08605469 13.2975 3.07445313 12.6015625 3.0625 C11.70953125 3.05347656 10.8175 3.04445313 9.8984375 3.03515625 C9.01671875 3.02355469 8.135 3.01195313 7.2265625 3 C4.70546802 3.00553113 4.70546802 3.00553113 2.5546875 3.62890625 C-0.49134145 4.37792976 -3.30235515 3.62540368 -6.3515625 3.09765625 C-6.3515625 2.43765625 -6.3515625 1.77765625 -6.3515625 1.09765625 C-4.00303722 -0.07660639 -2.61382185 -0.01742548 0 0 Z " fill="#C9C8C7" transform="translate(22.3515625,108.90234375)"/>
<path d="M0 0 C2.97 0.495 2.97 0.495 6 1 C6 1.66 6 2.32 6 3 C6.66 3 7.32 3 8 3 C8 5.64 8 8.28 8 11 C5.59454362 12.20272819 4.05003047 12.10071472 1.375 12.0625 C0.14910156 12.04896484 0.14910156 12.04896484 -1.1015625 12.03515625 C-2.04128906 12.01775391 -2.04128906 12.01775391 -3 12 C-3.33 14.31 -3.66 16.62 -4 19 C-4.33 19 -4.66 19 -5 19 C-5 16.03 -5 13.06 -5 10 C-3.329375 9.814375 -3.329375 9.814375 -1.625 9.625 C2.03103677 9.3534187 2.03103677 9.3534187 4 7 C3.90888062 4.46048456 3.90888062 4.46048456 3 2 C2.01 1.34 1.02 0.68 0 0 Z " fill="#511E1A" transform="translate(34,181)"/>
<path d="M0 0 C0.33 0 0.66 0 1 0 C1 2.64 1 5.28 1 8 C10.24 8 19.48 8 29 8 C29 6.68 29 5.36 29 4 C29.99 4 30.98 4 32 4 C32 5.32 32 6.64 32 8 C29.12645755 10.17457267 27.63563409 11 24 11 C24 10.34 24 9.68 24 9 C16.08 9 8.16 9 0 9 C0 6.03 0 3.06 0 0 Z " fill="#662425" transform="translate(136,168)"/>
<path d="M0 0 C3.96 0 7.92 0 12 0 C12 1.65 12 3.3 12 5 C8.04 5 4.08 5 0 5 C0 3.35 0 1.7 0 0 Z " fill="#A11D18" transform="translate(28,89)"/>
<path d="M0 0 C6.6 0 13.2 0 20 0 C19 2 19 2 17.18066406 2.61889648 C13.71992951 3.22371138 10.25057316 3.10270093 6.75 3.0625 C6.00492188 3.05798828 5.25984375 3.05347656 4.4921875 3.04882812 C2.6614236 3.03709246 0.83070127 3.0191585 -1 3 C-0.67 2.01 -0.34 1.02 0 0 Z " fill="#C6C6C4" transform="translate(17,168)"/>
<path d="M0 0 C0.33 0 0.66 0 1 0 C1.0825 1.11375 1.165 2.2275 1.25 3.375 C1.56125083 7.00444017 1.56125083 7.00444017 3.77636719 8.20068359 C6.07228408 9.02598354 7.89701294 9.30987198 10.328125 9.4140625 C11.12734375 9.45273437 11.9265625 9.49140625 12.75 9.53125 C13.9875 9.57765625 13.9875 9.57765625 15.25 9.625 C16.09046875 9.66367187 16.9309375 9.70234375 17.796875 9.7421875 C19.86423382 9.83615836 21.93208627 9.91915564 24 10 C24 10.33 24 10.66 24 11 C22.41058594 11.09087891 22.41058594 11.09087891 20.7890625 11.18359375 C19.40102779 11.26800127 18.01300768 11.35264917 16.625 11.4375 C15.92632812 11.47681641 15.22765625 11.51613281 14.5078125 11.55664062 C10.62639508 11.74280134 10.62639508 11.74280134 7 13 C4.6670134 13.04022391 2.33293334 13.04320247 0 13 C0 8.71 0 4.42 0 0 Z " fill="#AB3A36" transform="translate(136,40)"/>
<path d="M0 0 C0 0.99 0 1.98 0 3 C-4.7289347 3.99440216 -9.09270118 3.96565891 -13.875 3.5625 C-14.90753906 3.48418945 -14.90753906 3.48418945 -15.9609375 3.40429688 C-17.64112758 3.27594902 -19.32064749 3.13887775 -21 3 C-20.67 3.99 -20.34 4.98 -20 6 C-20.99 5.67 -21.98 5.34 -23 5 C-23 3.68 -23 2.36 -23 1 C-20.47932687 0.83054298 -17.95850616 0.66436516 -15.4375 0.5 C-14.73302734 0.45230469 -14.02855469 0.40460938 -13.30273438 0.35546875 C-8.85739865 0.0686729 -4.45455341 -0.04682842 0 0 Z " fill="#A1A19D" transform="translate(39,68)"/>
<path d="M0 0 C6.93 0 13.86 0 21 0 C21 0.66 21 1.32 21 2 C14.28837062 2.88021369 7.76594019 3.11381955 1 3 C0.67 2.01 0.34 1.02 0 0 Z " fill="#C6C7C8" transform="translate(16,22)"/>
<path d="M0 0 C0.33 1.32 0.66 2.64 1 4 C0.67 3.34 0.34 2.68 0 2 C-0.99580078 2.23009766 -0.99580078 2.23009766 -2.01171875 2.46484375 C-5.60155922 3.10773021 -9.17795419 3.35033991 -12.8125 3.5625 C-13.50537109 3.60568359 -14.19824219 3.64886719 -14.91210938 3.69335938 C-16.60788686 3.79861453 -18.30392052 3.89972863 -20 4 C-20.33 3.34 -20.66 2.68 -21 2 C-15.0052416 -0.9973792 -6.5494958 -0.10563703 0 0 Z " fill="#C0BEBE" transform="translate(37,36)"/>
<path d="M0 0 C6.0546875 -0.1953125 6.0546875 -0.1953125 8 0 C8.66 0.66 9.32 1.32 10 2 C9.01 2 8.02 2 7 2 C6.855625 2.639375 6.71125 3.27875 6.5625 3.9375 C6 6 6 6 5 7 C3.33382885 7.04063832 1.66611905 7.042721 0 7 C0 4.69 0 2.38 0 0 Z " fill="#812B26" transform="translate(28,146)"/>
<path d="M0 0 C0.33 0.99 0.66 1.98 1 3 C-5.93927086 6.92965451 -13.65113453 4.9457989 -21 3 C-21 2.67 -21 2.34 -21 2 C-19.865625 2.020625 -18.73125 2.04125 -17.5625 2.0625 C-13.6704447 2.07632613 -9.92617046 1.6816903 -6.078125 1.12109375 C-3.83973542 0.99066127 -2.13482359 1.35089823 0 2 C0 1.34 0 0.68 0 0 Z " fill="#AAA8A8" transform="translate(37,110)"/>
<path d="M0 0 C5.28 0 10.56 0 16 0 C16 0.99 16 1.98 16 3 C10.72 3 5.44 3 0 3 C0 2.01 0 1.02 0 0 Z " fill="#878283" transform="translate(48,212)"/>
<path d="M0 0 C1.54300781 -0.00386719 1.54300781 -0.00386719 3.1171875 -0.0078125 C5.899648 0.11504939 8.41739874 0.49555764 11.125 1.125 C10.795 1.785 10.465 2.445 10.125 3.125 C3.58583122 4.26675963 -2.32006398 4.01450071 -8.875 3.125 C-8.875 2.465 -8.875 1.805 -8.875 1.125 C-5.68374596 0.06124865 -3.35029029 -0.00835484 0 0 Z " fill="#83817F" transform="translate(26.875,26.875)"/>
<path d="M0 0 C1.98 0 3.96 0 6 0 C6 0.99 6 1.98 6 3 C4.68 3.33 3.36 3.66 2 4 C1.67 10.93 1.34 17.86 1 25 C2.65 25 4.3 25 6 25 C6 25.33 6 25.66 6 26 C4.02 26 2.04 26 0 26 C0 17.42 0 8.84 0 0 Z " fill="#217EBC" transform="translate(194,164)"/>
<path d="M0 0 C1.32 0 2.64 0 4 0 C4 0.66 4 1.32 4 2 C3.34 2 2.68 2 2 2 C2 5.63 2 9.26 2 13 C2.66 13 3.32 13 4 13 C4 13.66 4 14.32 4 15 C4.99 15.33 5.98 15.66 7 16 C4.36 16 1.72 16 -1 16 C-1.02685095 13.52076199 -1.04676547 11.0418116 -1.0625 8.5625 C-1.07506836 7.50192383 -1.07506836 7.50192383 -1.08789062 6.41992188 C-1.09653588 4.61306441 -1.05220011 2.80612397 -1 1 C-0.67 0.67 -0.34 0.34 0 0 Z " fill="#C53939" transform="translate(29,6)"/>
<path d="M0 0 C0.33 0 0.66 0 1 0 C1 1.65 1 3.3 1 5 C-0.16917969 4.98839844 -1.33835937 4.97679687 -2.54296875 4.96484375 C-4.09114423 4.95546087 -5.63932145 4.9463612 -7.1875 4.9375 C-7.95642578 4.92912109 -8.72535156 4.92074219 -9.51757812 4.91210938 C-13.48526789 4.89508066 -17.12571234 5.01395885 -21 6 C-21.33 5.01 -21.66 4.02 -22 3 C-19.27093526 2.83150207 -16.54176829 2.6651397 -13.8125 2.5 C-13.04357422 2.45230469 -12.27464844 2.40460938 -11.48242188 2.35546875 C-7.648496 2.12510411 -3.84309823 1.9383872 0 2 C0 1.34 0 0.68 0 0 Z " fill="#979694" transform="translate(38,155)"/>
<path d="M0 0 C1.2065625 0.0309375 1.2065625 0.0309375 2.4375 0.0625 C2.4375 0.7225 2.4375 1.3825 2.4375 2.0625 C3.4275 2.0625 4.4175 2.0625 5.4375 2.0625 C5.7675 3.0525 6.0975 4.0425 6.4375 5.0625 C2.96424819 6.2202506 0.07682552 6.13116652 -3.5625 6.0625 C-3.605221 4.39638095 -3.60313832 2.72867115 -3.5625 1.0625 C-2.5625 0.0625 -2.5625 0.0625 0 0 Z " fill="#8D2824" transform="translate(31.5625,131.9375)"/>
<path d="M0 0 C0.33 0 0.66 0 1 0 C1 1.65 1 3.3 1 5 C-2.4019487 7.09350689 -5.05272412 7.17942163 -9 7 C-9 8.65 -9 10.3 -9 12 C-6.69 12 -4.38 12 -2 12 C-2 12.33 -2 12.66 -2 13 C-4.64 13 -7.28 13 -10 13 C-10 10.69 -10 8.38 -10 6 C-8.71086513 5.32845067 -7.41859796 4.66291141 -6.125 4 C-5.40570313 3.62875 -4.68640625 3.2575 -3.9453125 2.875 C-2 2 -2 2 0 2 C0 1.34 0 0.68 0 0 Z " fill="#927B7B" transform="translate(38,111)"/>
<path d="M0 0 C2.97 0 5.94 0 9 0 C9.33 0.66 9.66 1.32 10 2 C8.68 2 7.36 2 6 2 C6 4.31 6 6.62 6 9 C3.69 9 1.38 9 -1 9 C-0.67 7.02 -0.34 5.04 0 3 C1.485 3.99 1.485 3.99 3 5 C3.33 3.68 3.66 2.36 4 1 C2.68 0.67 1.36 0.34 0 0 Z " fill="#8C2A23" transform="translate(143,95)"/>
<path d="M0 0 C0.66 0.33 1.32 0.66 2 1 C2 2.32 2 3.64 2 5 C1.01 4.67 0.02 4.34 -1 4 C-2.95640275 4.09763744 -2.95640275 4.09763744 -5.0625 4.4375 C-10.05797331 5.07836664 -14.97090243 5.09449244 -20 5 C-20.33 4.01 -20.66 3.02 -21 2 C-14.07 2 -7.14 2 0 2 C0 1.34 0 0.68 0 0 Z " fill="#A3A19F" transform="translate(37,183)"/>
<path d="M0 0 C2.64 0 5.28 0 8 0 C8.33 1.65 8.66 3.3 9 5 C6.03 5 3.06 5 0 5 C0 3.35 0 1.7 0 0 Z " fill="#611B19" transform="translate(141,167)"/>
<path d="M0 0 C6.6 0 13.2 0 20 0 C20 0.66 20 1.32 20 2 C15.2710653 2.99440216 10.90729882 2.96565891 6.125 2.5625 C5.43664062 2.51029297 4.74828125 2.45808594 4.0390625 2.40429688 C2.35887242 2.27594902 0.67935251 2.13887775 -1 2 C-0.67 1.34 -0.34 0.68 0 0 Z " fill="#CECECA" transform="translate(17,138)"/>
<path d="M0 0 C5.95703125 -0.29296875 5.95703125 -0.29296875 8 0 C8.99 0.99 9.98 1.98 11 3 C5.555 4.485 5.555 4.485 0 6 C-1 3 -1 3 0 0 Z " fill="#7E231F" transform="translate(152,124)"/>
<path d="M0 0 C1.56041016 -0.00386719 1.56041016 -0.00386719 3.15234375 -0.0078125 C5.63915971 0.10567977 7.69342407 0.40571429 10.0625 1.125 C10.0625 1.785 10.0625 2.445 10.0625 3.125 C3.7925 3.125 -2.4775 3.125 -8.9375 3.125 C-8.9375 2.465 -8.9375 1.805 -8.9375 1.125 C-5.73049911 0.0559997 -3.36757931 -0.00832529 0 0 Z " fill="#80827D" transform="translate(26.9375,55.875)"/>
<path d="M0 0 C2.64 0 5.28 0 8 0 C7.67 0.99 7.34 1.98 7 3 C-2.24 3 -11.48 3 -21 3 C-21 2.67 -21 2.34 -21 2 C-10.605 1.505 -10.605 1.505 0 1 C0 0.67 0 0.34 0 0 Z " fill="#541516" transform="translate(120,208)"/>
<path d="M0 0 C1.18613892 0.00785522 1.18613892 0.00785522 2.39624023 0.01586914 C3.67724609 0.02070312 3.67724609 0.02070312 4.98413086 0.02563477 C5.88196289 0.03401367 6.77979492 0.04239258 7.70483398 0.05102539 C8.6065332 0.05553711 9.50823242 0.06004883 10.43725586 0.06469727 C12.67234712 0.07652315 14.90730835 0.09300319 17.14233398 0.11352539 C17.14233398 0.77352539 17.14233398 1.43352539 17.14233398 2.11352539 C14.3719769 2.33515396 11.60194403 2.54131789 8.82983398 2.73852539 C8.04415039 2.80297852 7.2584668 2.86743164 6.44897461 2.93383789 C5.69165039 2.98540039 4.93432617 3.03696289 4.15405273 3.09008789 C3.45755615 3.14245605 2.76105957 3.19482422 2.04345703 3.2487793 C0.14233398 3.11352539 0.14233398 3.11352539 -2.85766602 1.11352539 C-1.85766602 0.11352539 -1.85766602 0.11352539 0 0 Z " fill="#CFD0CF" transform="translate(18.857666015625,79.886474609375)"/>
<path d="M0 0 C1.66519519 0.34060811 3.33157466 0.67558396 5 1 C5 1.33 5 1.66 5 2 C-1.27 2 -7.54 2 -14 2 C-14 1.34 -14 0.68 -14 0 C-9.88305027 -2.05847487 -4.32471368 -1.34215252 0 0 Z " fill="#828485" transform="translate(32,42)"/>
<path d="M0 0 C5.78591511 -0.10477512 11.29309366 0.00749455 17 1 C17 1.33 17 1.66 17 2 C10.97403427 3.0712828 5.11090483 3.09945415 -1 3 C-0.67 2.01 -0.34 1.02 0 0 Z " fill="#CECDCB" transform="translate(17,153)"/>
<path d="M0 0 C2.31 0 4.62 0 7 0 C7.33 1.65 7.66 3.3 8 5 C5.36 5 2.72 5 0 5 C0 3.35 0 1.7 0 0 Z " fill="#730F0E" transform="translate(141,131)"/>
<path d="M0 0 C0.99 0 1.98 0 3 0 C3 4.29 3 8.58 3 13 C2.01 13 1.02 13 0 13 C0 8.71 0 4.42 0 0 Z " fill="#DCDEDD" transform="translate(137,112)"/>
<path d="M0 0 C-0.33 0.66 -0.66 1.32 -1 2 C-7.45581741 3.82351107 -13.64201425 2.60608826 -20 1 C-20 0.67 -20 0.34 -20 0 C-17.79245484 -0.19656224 -15.58390461 -0.38185459 -13.375 -0.5625 C-12.14523438 -0.66691406 -10.91546875 -0.77132812 -9.6484375 -0.87890625 C-6.24372538 -0.99191061 -3.32441602 -0.69045563 0 0 Z " fill="#837F7C" transform="translate(38,101)"/>
<path d="M0 0 C1.98 0 3.96 0 6 0 C6 0.33 6 0.66 6 1 C4.35 1 2.7 1 1 1 C1 2.32 1 3.64 1 5 C4.78527521 4.48847632 6.44108688 3.79154158 9 1 C9.99 0.67 10.98 0.34 12 0 C12 1.98 12 3.96 12 6 C8.04 6 4.08 6 0 6 C0 4.02 0 2.04 0 0 Z " fill="#A8302A" transform="translate(28,74)"/>
<path d="M0 0 C5.28 0 10.56 0 16 0 C16 0.33 16 0.66 16 1 C13.36 1 10.72 1 8 1 C8 1.66 8 2.32 8 3 C7.401875 3.28875 6.80375 3.5775 6.1875 3.875 C3.80672208 5.04742026 3.80672208 5.04742026 1 7 C0.67 4.69 0.34 2.38 0 0 Z " fill="#AD231E" transform="translate(136,32)"/>
<path d="M0 0 C5.28 0 10.56 0 16 0 C16.33 0.66 16.66 1.32 17 2 C14.54203147 2.19436491 12.08390706 2.3807742 9.625 2.5625 C8.92632812 2.61857422 8.22765625 2.67464844 7.5078125 2.73242188 C2.2265625 3.11328125 2.2265625 3.11328125 0 2 C-0.33 2.66 -0.66 3.32 -1 4 C-0.67 2.68 -0.34 1.36 0 0 Z " fill="#D2D2D2" transform="translate(139,146)"/>
<path d="M0 0 C4.44870215 -0.39253254 7.14243493 0.84694043 11 3 C11 3.33 11 3.66 11 4 C7.37 4.33 3.74 4.66 0 5 C0 3.35 0 1.7 0 0 Z " fill="#C12924" transform="translate(28,31)"/>
<path d="M0 0 C0.99 0.66 1.98 1.32 3 2 C2.67 2.99 2.34 3.98 2 5 C-2.07467725 6.48882438 -5.66541415 7.26270217 -10 7 C-10 6.34 -10 5.68 -10 5 C-9.36191406 4.89042969 -8.72382813 4.78085938 -8.06640625 4.66796875 C-7.24011719 4.50941406 -6.41382813 4.35085937 -5.5625 4.1875 C-4.32693359 3.96126953 -4.32693359 3.96126953 -3.06640625 3.73046875 C-2.38449219 3.48941406 -1.70257813 3.24835938 -1 3 C-0.67 2.01 -0.34 1.02 0 0 Z " fill="#AEACAD" transform="translate(189,210)"/>
<path d="M0 0 C0.33 0 0.66 0 1 0 C1 2.64 1 5.28 1 8 C-0.98 8.99 -0.98 8.99 -3 10 C-3.33 9.67 -3.66 9.34 -4 9 C-6.85877909 8.76298761 -9.69883297 8.57780818 -12.5625 8.4375 C-13.36880859 8.39431641 -14.17511719 8.35113281 -15.00585938 8.30664062 C-17.00368805 8.20024738 -19.0018207 8.09959112 -21 8 C-21 7.67 -21 7.34 -21 7 C-18.06281233 6.80538512 -15.12550068 6.61902407 -12.1875 6.4375 C-11.35412109 6.38142578 -10.52074219 6.32535156 -9.66210938 6.26757812 C-8.85966797 6.21923828 -8.05722656 6.17089844 -7.23046875 6.12109375 C-6.49207764 6.0739624 -5.75368652 6.02683105 -4.99291992 5.97827148 C-3 6 -3 6 0 7 C0 4.69 0 2.38 0 0 Z " fill="#BCB0AE" transform="translate(164,148)"/>
<path d="M0 0 C7.92 0 15.84 0 24 0 C24 0.33 24 0.66 24 1 C18.06 1 12.12 1 6 1 C6 1.66 6 2.32 6 3 C4.02 3 2.04 3 0 3 C0 2.01 0 1.02 0 0 Z " fill="#EEE7DE" transform="translate(137,71)"/>
<path d="M0 0 C0.16242188 0.64453125 0.32484375 1.2890625 0.4921875 1.953125 C1.95214403 4.4336254 1.95214403 4.4336254 5.6953125 4.609375 C7.17112237 4.67585292 8.64796017 4.72193879 10.125 4.75 C10.87910156 4.77964844 11.63320312 4.80929688 12.41015625 4.83984375 C14.27285953 4.91057932 16.13643755 4.95754983 18 5 C18 5.33 18 5.66 18 6 C15.4167588 6.16821105 12.83342301 6.33462517 10.25 6.5 C9.52039063 6.54769531 8.79078125 6.59539063 8.0390625 6.64453125 C4.68189836 6.85816897 1.36563724 7 -2 7 C-2.33 6.01 -2.66 5.02 -3 4 C-2.01 4 -1.02 4 0 4 C0 2.68 0 1.36 0 0 Z " fill="#EDD6D2" transform="translate(140,41)"/>
<path d="M0 0 C0.33 0 0.66 0 1 0 C1 1.65 1 3.3 1 5 C-2.06533164 6.53266582 -5.26754272 6.10276471 -8.625 6.0625 C-9.33140625 6.05798828 -10.0378125 6.05347656 -10.765625 6.04882812 C-12.51045275 6.03703875 -14.255237 6.01910324 -16 6 C-16 5.67 -16 5.34 -16 5 C-15.18015625 4.86722656 -14.3603125 4.73445312 -13.515625 4.59765625 C-12.43796875 4.42105469 -11.3603125 4.24445313 -10.25 4.0625 C-9.18265625 3.88847656 -8.1153125 3.71445313 -7.015625 3.53515625 C-4.63652407 3.11295829 -2.33084789 2.62797116 0 2 C0 1.34 0 0.68 0 0 Z " fill="#868886" transform="translate(38,140)"/>
<path d="M0 0 C1.32 0.99 2.64 1.98 4 3 C-2.27 3 -8.54 3 -15 3 C-15 2.34 -15 1.68 -15 1 C-13.87851562 1.01740234 -13.87851562 1.01740234 -12.734375 1.03515625 C-11.74953125 1.04417969 -10.7646875 1.05320312 -9.75 1.0625 C-8.77546875 1.07410156 -7.8009375 1.08570312 -6.796875 1.09765625 C-4.07348631 1.13237014 -4.07348631 1.13237014 -1.890625 0.30859375 C-0.95476563 0.15583984 -0.95476563 0.15583984 0 0 Z " fill="#AFAEAB" transform="translate(31,96)"/>
<path d="M0 0 C0 0.66 0 1.32 0 2 C-6.93 2 -13.86 2 -21 2 C-20.67 1.34 -20.34 0.68 -20 0 C-13.38061117 -1.53783781 -6.6589434 -0.9209177 0 0 Z " fill="#D3D2D0" transform="translate(37,182)"/>
<path d="M0 0 C-1.65 1.65 -3.3 3.3 -5 5 C-5.33 4.01 -5.66 3.02 -6 2 C-6.66 2 -7.32 2 -8 2 C-8.33 3.65 -8.66 5.3 -9 7 C-9.66 6.34 -10.32 5.68 -11 5 C-10.75 2.9375 -10.75 2.9375 -10 1 C-6.78548731 -0.60725635 -3.56387464 -0.05748185 0 0 Z " fill="#F9EFEC" transform="translate(35,0)"/>
<path d="M0 0 C0.33 0 0.66 0 1 0 C1 4.29 1 8.58 1 13 C1.66 13 2.32 13 3 13 C3.125 15.875 3.125 15.875 3 19 C2.34 19.66 1.68 20.32 1 21 C0.34 19.68 -0.32 18.36 -1 17 C-0.34 16.67 0.32 16.34 1 16 C0.34 15.34 -0.32 14.68 -1 14 C-0.9765625 10.7421875 -0.9765625 10.7421875 -0.625 6.875 C-0.51414063 5.59367187 -0.40328125 4.31234375 -0.2890625 2.9921875 C-0.19367188 2.00476563 -0.09828125 1.01734375 0 0 Z " fill="#972825" transform="translate(165,62)"/>
<path d="M0 0 C0 0.99 0 1.98 0 3 C-1.19625 2.979375 -2.3925 2.95875 -3.625 2.9375 C-7.18391334 2.94382134 -10.52478812 3.15238735 -14 4 C-14.33 4.66 -14.66 5.32 -15 6 C-15.33 4.35 -15.66 2.7 -16 1 C-8.08 0.505 -8.08 0.505 0 0 Z " fill="#A4A6A4" transform="translate(32,38)"/>
<path d="M0 0 C0.33 0 0.66 0 1 0 C1 1.65 1 3.3 1 5 C0.195625 4.855625 -0.60875 4.71125 -1.4375 4.5625 C-5.61359481 3.90311661 -9.79598059 3.43908647 -14 3 C-14 2.67 -14 2.34 -14 2 C-13.07316406 1.93941406 -12.14632813 1.87882812 -11.19140625 1.81640625 C-9.39509766 1.69072266 -9.39509766 1.69072266 -7.5625 1.5625 C-5.77005859 1.44068359 -5.77005859 1.44068359 -3.94140625 1.31640625 C-1.11429756 1.32343886 -1.11429756 1.32343886 0 0 Z " fill="#A3A29E" transform="translate(38,125)"/>
<path d="M0 0 C0.66 0 1.32 0 2 0 C1.67 1.65 1.34 3.3 1 5 C1.99 4.67 2.98 4.34 4 4 C4 5.32 4 6.64 4 8 C2.35 8 0.7 8 -1 8 C-1.625 5.125 -1.625 5.125 -2 2 C-1.34 1.34 -0.68 0.68 0 0 Z " fill="#A8231B" transform="translate(42,64)"/>
<path d="M0 0 C5.841744 -0.35050464 9.8531808 -0.16727335 15 3 C15 3.33 15 3.66 15 4 C11.7 3.67 8.4 3.34 5 3 C5 2.34 5 1.68 5 1 C3.35 1 1.7 1 0 1 C0 0.67 0 0.34 0 0 Z " fill="#EBEBEB" transform="translate(17,215)"/>
<path d="M0 0 C0.33 0 0.66 0 1 0 C1 2.64 1 5.28 1 8 C1.66 8 2.32 8 3 8 C3.33 9.65 3.66 11.3 4 13 C2.35 13 0.7 13 -1 13 C-0.67 8.71 -0.34 4.42 0 0 Z " fill="#0380C3" transform="translate(196,176)"/>
<path d="M0 0 C-0.33 1.65 -0.66 3.3 -1 5 C-2.98 5.33 -4.96 5.66 -7 6 C-7.33 4.68 -7.66 3.36 -8 2 C-2.25 0 -2.25 0 0 0 Z " fill="#D0C3C0" transform="translate(165,126)"/>
<path d="M0 0 C0.5625 1.9375 0.5625 1.9375 1 4 C0 5 0 5 -1.76586914 5.11352539 C-2.51473389 5.10828857 -3.26359863 5.10305176 -4.03515625 5.09765625 C-4.84404297 5.09443359 -5.65292969 5.09121094 -6.48632812 5.08789062 C-7.33646484 5.07951172 -8.18660156 5.07113281 -9.0625 5.0625 C-9.91650391 5.05798828 -10.77050781 5.05347656 -11.65039062 5.04882812 C-13.76695663 5.03700373 -15.88348685 5.01906769 -18 5 C-18 4.67 -18 4.34 -18 4 C-16.95199219 3.96261719 -15.90398438 3.92523438 -14.82421875 3.88671875 C-13.44527695 3.82105485 -12.06637229 3.75460765 -10.6875 3.6875 C-9.65206055 3.65366211 -9.65206055 3.65366211 -8.59570312 3.61914062 C-4.50793266 3.4163003 -4.50793266 3.4163003 -1.01953125 1.45703125 C-0.51486328 0.73580078 -0.51486328 0.73580078 0 0 Z " fill="#8F8E8D" transform="translate(38,82)"/>
<path d="M0 0 C5.94 0 11.88 0 18 0 C18 0.66 18 1.32 18 2 C18.66 2.33 19.32 2.66 20 3 C19.33613281 2.84660156 18.67226562 2.69320312 17.98828125 2.53515625 C14.39844078 1.89226979 10.82204581 1.64966009 7.1875 1.4375 C6.14819336 1.37272461 6.14819336 1.37272461 5.08789062 1.30664062 C3.39211314 1.20138547 1.69607948 1.10027137 0 1 C0 0.67 0 0.34 0 0 Z " fill="#CFC8C1" transform="translate(140,145)"/>
<path d="M0 0 C2.64 0 5.28 0 8 0 C7.01 0.495 7.01 0.495 6 1 C5.67 1.99 5.34 2.98 5 4 C3.35 4 1.7 4 0 4 C0 2.68 0 1.36 0 0 Z " fill="#AA1E17" transform="translate(29,75)"/>
<path d="M0 0 C-0.99 1.485 -0.99 1.485 -2 3 C-4.1640625 3.29296875 -4.1640625 3.29296875 -6.625 3.1875 C-7.44226563 3.16042969 -8.25953125 3.13335937 -9.1015625 3.10546875 C-9.72804688 3.07066406 -10.35453125 3.03585938 -11 3 C-11 2.34 -11 1.68 -11 1 C-7.32589215 -0.17571451 -3.83070817 -0.07366746 0 0 Z " fill="#7E7F7C" transform="translate(39,71)"/>
<path d="M0 0 C0.33 0.66 0.66 1.32 1 2 C1.66 2 2.32 2 3 2 C3 3.98 3 5.96 3 8 C3.99 7.67 4.98 7.34 6 7 C6 7.66 6 8.32 6 9 C4.35 9 2.7 9 1 9 C0.67 6.03 0.34 3.06 0 0 Z " fill="#C3C1C0" transform="translate(137,166)"/>
<path d="M0 0 C4.875 0.875 4.875 0.875 6 2 C6.23728814 8.52542373 6.23728814 8.52542373 5 11 C3.35 11 1.7 11 0 11 C1.32 10.01 2.64 9.02 4 8 C3.50168276 4.31245243 2.89932357 2.39509338 0 0 Z " fill="#4A251F" transform="translate(34,64)"/>
<path d="M0 0 C1.32 0.33 2.64 0.66 4 1 C3.67 1.99 3.34 2.98 3 4 C1.22844346 3.88570603 -0.54226229 3.75816963 -2.3125 3.625 C-3.29863281 3.55539063 -4.28476563 3.48578125 -5.30078125 3.4140625 C-8 3 -8 3 -11 1 C-7.37 1 -3.74 1 0 1 C0 0.67 0 0.34 0 0 Z " fill="#8C413F" transform="translate(148,124)"/>
<path d="M0 0 C2.86724686 0.57344937 3.8614515 0.8614515 6 3 C5.625 6.125 5.625 6.125 5 9 C3.68 9.33 2.36 9.66 1 10 C1.66 9.01 2.32 8.02 3 7 C2.6758631 3.67759676 2.39223697 2.39223697 0 0 Z " fill="#41221A" transform="translate(35,79)"/>
<path d="M0 0 C1.32 0 2.64 0 4 0 C4 0.66 4 1.32 4 2 C5.32 2.33 6.64 2.66 8 3 C7.42655063 5.86724686 7.1385485 6.8614515 5 9 C4.731875 8.071875 4.46375 7.14375 4.1875 6.1875 C3.08851629 3.23759634 2.37581439 1.94384814 0 0 Z " fill="#AC423E" transform="translate(160,36)"/>
<path d="M0 0 C2.97 0 5.94 0 9 0 C9.33 1.32 9.66 2.64 10 4 C9.67 3.34 9.34 2.68 9 2 C8.443125 2.185625 7.88625 2.37125 7.3125 2.5625 C4.600867 3.07551165 2.65628961 2.6640724 0 2 C0 1.34 0 0.68 0 0 Z " fill="#CACCCA" transform="translate(28,36)"/>
<path d="M0 0 C2.97 0.495 2.97 0.495 6 1 C6.09765625 7.15234375 6.09765625 7.15234375 6 9 C5 10 5 10 2.4375 10.0625 C1.633125 10.041875 0.82875 10.02125 0 10 C1.32 9.01 2.64 8.02 4 7 C3.72965366 4.56282742 3.72965366 4.56282742 3 2 C2.01 1.34 1.02 0.68 0 0 Z " fill="#452821" transform="translate(34,35)"/>
<path d="M0 0 C1.65 1.32 3.3 2.64 5 4 C4.34 5.32 3.68 6.64 3 8 C2.67 7.34 2.34 6.68 2 6 C1.01 6 0.02 6 -1 6 C-0.67 4.02 -0.34 2.04 0 0 Z " fill="#B22B28" transform="translate(188,1)"/>
<path d="M0 0 C1.375 2.5625 1.375 2.5625 2 5 C1.34 4.525625 0.68 4.05125 0 3.5625 C-3.7933028 1.58682146 -6.75524068 1.35972537 -11 1 C-11 0.67 -11 0.34 -11 0 C-7.03790343 -1.04879027 -3.94474337 -1.22725349 0 0 Z " fill="#DD513E" transform="translate(187,5)"/>
<path d="M0 0 C3.63 0.33 7.26 0.66 11 1 C9 3 9 3 6.8359375 3.1953125 C5.61777344 3.16050781 5.61777344 3.16050781 4.375 3.125 C3.55773437 3.10695312 2.74046875 3.08890625 1.8984375 3.0703125 C1.27195313 3.04710937 0.64546875 3.02390625 0 3 C0 2.01 0 1.02 0 0 Z " fill="#631511" transform="translate(141,159)"/>
<path d="M0 0 C2.31 0.33 4.62 0.66 7 1 C7 1.66 7 2.32 7 3 C5.68 3 4.36 3 3 3 C3 3.99 3 4.98 3 6 C2.01 5.67 1.02 5.34 0 5 C0 3.35 0 1.7 0 0 Z " fill="#A6A6A6" transform="translate(16,126)"/>
<path d="M0 0 C1.06546953 3.1964086 1.07427838 5.65747276 1 9 C0.01 8.34 -0.98 7.68 -2 7 C-2.1875 3.875 -2.1875 3.875 -2 1 C-1.34 0.67 -0.68 0.34 0 0 Z " fill="#631716" transform="translate(31,200)"/>
<path d="M0 0 C1.32 0.33 2.64 0.66 4 1 C4 2.98 4 4.96 4 7 C3.67 5.68 3.34 4.36 3 3 C2.34 3 1.68 3 1 3 C1.33 3.99 1.66 4.98 2 6 C1.01 6.495 1.01 6.495 0 7 C0 4.69 0 2.38 0 0 Z " fill="#EEAE07" transform="translate(197,137)"/>
<path d="M0 0 C0.99 0.33 1.98 0.66 3 1 C2.47731534 3.76276177 1.89130413 6.3260876 1 9 C1.66 9.33 2.32 9.66 3 10 C2.01 10 1.02 10 0 10 C0 6.7 0 3.4 0 0 Z " fill="#DDCFCF" transform="translate(137,130)"/>
<path d="M0 0 C-0.33 1.32 -0.66 2.64 -1 4 C-2.65 4.33 -4.3 4.66 -6 5 C-6.33 4.34 -6.66 3.68 -7 3 C-4.49955934 -0.00052879 -4.2621484 0 0 0 Z " fill="#D3CFCE" transform="translate(158,129)"/>
<path d="M0 0 C1.32 0.66 2.64 1.32 4 2 C3.01 2.495 3.01 2.495 2 3 C1.67 3.99 1.34 4.98 1 6 C-2 5 -2 5 -4 3 C-3.01 2.67 -2.02 2.34 -1 2 C-0.67 1.34 -0.34 0.68 0 0 Z " fill="#AD3630" transform="translate(164,46)"/>
<path d="M0 0 C0.33 0 0.66 0 1 0 C1 1.65 1 3.3 1 5 C-2.375 5.625 -2.375 5.625 -6 6 C-6.66 5.34 -7.32 4.68 -8 4 C-6.865625 3.71125 -5.73125 3.4225 -4.5625 3.125 C-3.386875 2.75375 -2.21125 2.3825 -1 2 C-0.67 1.34 -0.34 0.68 0 0 Z " fill="#E3DDDD" transform="translate(28,204)"/>
<path d="M0 0 C2.31 0.33 4.62 0.66 7 1 C5.37660195 2.70884005 3.70680947 4.37446717 2 6 C1.34 6 0.68 6 0 6 C0 4.02 0 2.04 0 0 Z " fill="#9A2117" transform="translate(136,76)"/>
<path d="M0 0 C2.64 0 5.28 0 8 0 C8.33 0.66 8.66 1.32 9 2 C2.25 3.125 2.25 3.125 0 2 C0 1.34 0 0.68 0 0 Z " fill="#B9B9B7" transform="translate(16,67)"/>
<path d="M0 0 C0.99 0.33 1.98 0.66 3 1 C2.34 2.65 1.68 4.3 1 6 C0.01 6 -0.98 6 -2 6 C-2 4.35 -2 2.7 -2 1 C-1.34 0.67 -0.68 0.34 0 0 Z " fill="#F7FBFA" transform="translate(139,39)"/>
<path d="M0 0 C2.875 -0.125 2.875 -0.125 6 0 C6.66 0.66 7.32 1.32 8 2 C3.545 2.495 3.545 2.495 -1 3 C-0.67 2.01 -0.34 1.02 0 0 Z " fill="#C9CDCA" transform="translate(140,164)"/>
<path d="M0 0 C3.68754757 0.49831724 5.60490662 1.10067643 8 4 C5.36 4 2.72 4 0 4 C0 2.68 0 1.36 0 0 Z " fill="#711110" transform="translate(29,163)"/>
<path d="M0 0 C-0.33 0.66 -0.66 1.32 -1 2 C-3.64 2 -6.28 2 -9 2 C-9 1.34 -9 0.68 -9 0 C-5.52176885 -1.15941038 -3.54104422 -0.70820884 0 0 Z " fill="#7C736D" transform="translate(37,160)"/>
<path d="M0 0 C0.66 0.99 1.32 1.98 2 3 C0.41727399 4.58272601 -1.38034003 4.34735747 -3.5625 4.5625 C-4.80193359 4.68818359 -4.80193359 4.68818359 -6.06640625 4.81640625 C-7.02353516 4.90728516 -7.02353516 4.90728516 -8 5 C-8 4.34 -8 3.68 -8 3 C-6.865625 2.690625 -5.73125 2.38125 -4.5625 2.0625 C-1.21224901 1.37075469 -1.21224901 1.37075469 0 0 Z " fill="#847A79" transform="translate(36,128)"/>
<path d="M0 0 C0.33 1.32 0.66 2.64 1 4 C-3.75 3.25 -3.75 3.25 -6 1 C-4 0 -4 0 0 0 Z " fill="#AD1E15" transform="translate(40,61)"/>
<path d="M0 0 C0.99 1.32 1.98 2.64 3 4 C2.01 4.66 1.02 5.32 0 6 C-1.32 5.34 -2.64 4.68 -4 4 C-2.68 2.68 -1.36 1.36 0 0 Z " fill="#C52B24" transform="translate(33,1)"/>
<path d="M0 0 C0.66 0 1.32 0 2 0 C2.33 0.99 2.66 1.98 3 3 C3.66 3.33 4.32 3.66 5 4 C4 5 4 5 1.4375 5.0625 C0.2309375 5.0315625 0.2309375 5.0315625 -1 5 C-0.67 3.35 -0.34 1.7 0 0 Z " fill="#BDC0BF" transform="translate(28,210)"/>
<path d="M0 0 C1.98 0 3.96 0 6 0 C5.67 0.99 5.34 1.98 5 3 C3.35 3 1.7 3 0 3 C0 2.01 0 1.02 0 0 Z " fill="#521414" transform="translate(184,208)"/>
<path d="M0 0 C1.98 0 3.96 0 6 0 C6 0.99 6 1.98 6 3 C4.35 3.33 2.7 3.66 1 4 C0.67 2.68 0.34 1.36 0 0 Z " fill="#329EDC" transform="translate(194,164)"/>
<path d="M0 0 C0.99 0.33 1.98 0.66 3 1 C2.67 2.32 2.34 3.64 2 5 C0.68 4.67 -0.64 4.34 -2 4 C-1.34 2.68 -0.68 1.36 0 0 Z " fill="#772323" transform="translate(146,131)"/>
<path d="M0 0 C4.55384615 -0.36923077 4.55384615 -0.36923077 6.8125 1.5 C7.204375 1.995 7.59625 2.49 8 3 C5.36 3 2.72 3 0 3 C0 2.01 0 1.02 0 0 Z " fill="#881513" transform="translate(29,120)"/>
<path d="M0 0 C2.64 0.33 5.28 0.66 8 1 C8 1.33 8 1.66 8 2 C6.576875 2.185625 6.576875 2.185625 5.125 2.375 C1.91332809 2.71687177 1.91332809 2.71687177 0 5 C0 3.35 0 1.7 0 0 Z " fill="#AB2A2A" transform="translate(28,89)"/>
<path d="M0 0 C0.33 0 0.66 0 1 0 C1 1.98 1 3.96 1 6 C-0.32 6.33 -1.64 6.66 -3 7 C-1.125 1.125 -1.125 1.125 0 0 Z " fill="#A82019" transform="translate(44,80)"/>
<path d="M0 0 C2.5 1.375 2.5 1.375 5 3 C5 3.66 5 4.32 5 5 C3.35 5 1.7 5 0 5 C0 3.35 0 1.7 0 0 Z " fill="#AF221B" transform="translate(41,51)"/>
<path d="M0 0 C0.66 0.33 1.32 0.66 2 1 C2 1.99 2 2.98 2 4 C-1.3 3.67 -4.6 3.34 -8 3 C-8 2.67 -8 2.34 -8 2 C-5.36 2 -2.72 2 0 2 C0 1.34 0 0.68 0 0 Z " fill="#ADB1AF" transform="translate(37,22)"/>
</svg>
